<svg xmlns="http://www.w3.org/2000/svg" class="feedback__dots" width="110" height="110" viewBox="0 0 110 110" fill="none"><style>.a{fill:white;}</style><path d="M5 107.5C5 106.1 3.9 105 2.5 105 1.1 105 0 106.1 0 107.5 0 108.9 1.1 110 2.5 110 3.9 110 5 108.9 5 107.5Z" class="a"/><path d="M47 107.5C47 106.1 45.9 105 44.5 105 43.1 105 42 106.1 42 107.5 42 108.9 43.1 110 44.5 110 45.9 110 47 108.9 47 107.5Z" class="a"/><path d="M89 107.5C89 106.1 87.9 105 86.5 105 85.1 105 84 106.1 84 107.5 84 108.9 85.1 110 86.5 110 87.9 110 89 108.9 89 107.5Z" class="a"/><path d="M26 107.5C26 106.1 24.9 105 23.5 105 22.1 105 21 106.1 21 107.5 21 108.9 22.1 110 23.5 110 24.9 110 26 108.9 26 107.5Z" class="a"/><path d="M68 107.5C68 106.1 66.9 105 65.5 105 64.1 105 63 106.1 63 107.5 63 108.9 64.1 110 65.5 110 66.9 110 68 108.9 68 107.5Z" class="a"/><path d="M110 107.5C110 106.1 108.9 105 107.5 105 106.1 105 105 106.1 105 107.5 105 108.9 106.1 110 107.5 110 108.9 110 110 108.9 110 107.5Z" class="a"/><path d="M5 44.5C5 43.1 3.9 42 2.5 42 1.1 42 0 43.1 0 44.5 0 45.9 1.1 47 2.5 47 3.9 47 5 45.9 5 44.5Z" class="a"/><path d="M47 44.5C47 43.1 45.9 42 44.5 42 43.1 42 42 43.1 42 44.5 42 45.9 43.1 47 44.5 47 45.9 47 47 45.9 47 44.5Z" class="a"/><path d="M89 44.5C89 43.1 87.9 42 86.5 42 85.1 42 84 43.1 84 44.5 84 45.9 85.1 47 86.5 47 87.9 47 89 45.9 89 44.5Z" class="a"/><path d="M26 44.5C26 43.1 24.9 42 23.5 42 22.1 42 21 43.1 21 44.5 21 45.9 22.1 47 23.5 47 24.9 47 26 45.9 26 44.5Z" class="a"/><path d="M68 44.5C68 43.1 66.9 42 65.5 42 64.1 42 63 43.1 63 44.5 63 45.9 64.1 47 65.5 47 66.9 47 68 45.9 68 44.5Z" class="a"/><path d="M110 44.5C110 43.1 108.9 42 107.5 42 106.1 42 105 43.1 105 44.5 105 45.9 106.1 47 107.5 47 108.9 47 110 45.9 110 44.5Z" class="a"/><path d="M5 86.5C5 85.1 3.9 84 2.5 84 1.1 84 0 85.1 0 86.5 0 87.9 1.1 89 2.5 89 3.9 89 5 87.9 5 86.5Z" class="a"/><path d="M47 86.5C47 85.1 45.9 84 44.5 84 43.1 84 42 85.1 42 86.5 42 87.9 43.1 89 44.5 89 45.9 89 47 87.9 47 86.5Z" class="a"/><path d="M89 86.5C89 85.1 87.9 84 86.5 84 85.1 84 84 85.1 84 86.5 84 87.9 85.1 89 86.5 89 87.9 89 89 87.9 89 86.5Z" class="a"/><path d="M26 86.5C26 85.1 24.9 84 23.5 84 22.1 84 21 85.1 21 86.5 21 87.9 22.1 89 23.5 89 24.9 89 26 87.9 26 86.5Z" class="a"/><path d="M68 86.5C68 85.1 66.9 84 65.5 84 64.1 84 63 85.1 63 86.5 63 87.9 64.1 89 65.5 89 66.9 89 68 87.9 68 86.5Z" class="a"/><path d="M110 86.5C110 85.1 108.9 84 107.5 84 106.1 84 105 85.1 105 86.5 105 87.9 106.1 89 107.5 89 108.9 89 110 87.9 110 86.5Z" class="a"/><path d="M5 23.5C5 22.1 3.9 21 2.5 21 1.1 21 0 22.1 0 23.5 0 24.9 1.1 26 2.5 26 3.9 26 5 24.9 5 23.5Z" class="a"/><path d="M47 23.5C47 22.1 45.9 21 44.5 21 43.1 21 42 22.1 42 23.5 42 24.9 43.1 26 44.5 26 45.9 26 47 24.9 47 23.5Z" class="a"/><path d="M89 23.5C89 22.1 87.9 21 86.5 21 85.1 21 84 22.1 84 23.5 84 24.9 85.1 26 86.5 26 87.9 26 89 24.9 89 23.5Z" class="a"/><path d="M26 23.5C26 22.1 24.9 21 23.5 21 22.1 21 21 22.1 21 23.5 21 24.9 22.1 26 23.5 26 24.9 26 26 24.9 26 23.5Z" class="a"/><path d="M68 23.5C68 22.1 66.9 21 65.5 21 64.1 21 63 22.1 63 23.5 63 24.9 64.1 26 65.5 26 66.9 26 68 24.9 68 23.5Z" class="a"/><path d="M110 23.5C110 22.1 108.9 21 107.5 21 106.1 21 105 22.1 105 23.5 105 24.9 106.1 26 107.5 26 108.9 26 110 24.9 110 23.5Z" class="a"/><path d="M5 65.5C5 64.1 3.9 63 2.5 63 1.1 63 0 64.1 0 65.5 0 66.9 1.1 68 2.5 68 3.9 68 5 66.9 5 65.5Z" class="a"/><path d="M47 65.5C47 64.1 45.9 63 44.5 63 43.1 63 42 64.1 42 65.5 42 66.9 43.1 68 44.5 68 45.9 68 47 66.9 47 65.5Z" class="a"/><path d="M89 65.5C89 64.1 87.9 63 86.5 63 85.1 63 84 64.1 84 65.5 84 66.9 85.1 68 86.5 68 87.9 68 89 66.9 89 65.5Z" class="a"/><path d="M26 65.5C26 64.1 24.9 63 23.5 63 22.1 63 21 64.1 21 65.5 21 66.9 22.1 68 23.5 68 24.9 68 26 66.9 26 65.5Z" class="a"/><path d="M68 65.5C68 64.1 66.9 63 65.5 63 64.1 63 63 64.1 63 65.5 63 66.9 64.1 68 65.5 68 66.9 68 68 66.9 68 65.5Z" class="a"/><path d="M110 65.5C110 64.1 108.9 63 107.5 63 106.1 63 105 64.1 105 65.5 105 66.9 106.1 68 107.5 68 108.9 68 110 66.9 110 65.5Z" class="a"/><path d="M5 2.5C5 1.1 3.9 0 2.5 0 1.1 0 0 1.1 0 2.5 0 3.9 1.1 5 2.5 5 3.9 5 5 3.9 5 2.5Z" class="a"/><path d="M47 2.5C47 1.1 45.9 0 44.5 0 43.1 0 42 1.1 42 2.5 42 3.9 43.1 5 44.5 5 45.9 5 47 3.9 47 2.5Z" class="a"/><path d="M89 2.5C89 1.1 87.9 0 86.5 0 85.1 0 84 1.1 84 2.5 84 3.9 85.1 5 86.5 5 87.9 5 89 3.9 89 2.5Z" class="a"/><path d="M26 2.5C26 1.1 24.9 0 23.5 0 22.1 0 21 1.1 21 2.5 21 3.9 22.1 5 23.5 5 24.9 5 26 3.9 26 2.5Z" class="a"/><path d="M68 2.5C68 1.1 66.9 0 65.5 0 64.1 0 63 1.1 63 2.5 63 3.9 64.1 5 65.5 5 66.9 5 68 3.9 68 2.5Z" class="a"/><path d="M110 2.5C110 1.1 108.9 0 107.5 0 106.1 0 105 1.1 105 2.5 105 3.9 106.1 5 107.5 5 108.9 5 110 3.9 110 2.5Z" class="a"/></svg>
