<svg width="62" height="38" viewBox="0 0 62 38" fill="none" xmlns="http://www.w3.org/2000/svg">
<g clip-path="url(#clip0)">
<path d="M2.7944 24.8701C2.7944 24.0985 2.16885 23.4729 1.3972 23.4729C0.625547 23.4729 0 24.0985 0 24.8701C0 25.6418 0.625547 26.2673 1.3972 26.2673C2.16885 26.2673 2.7944 25.6418 2.7944 24.8701Z" fill="#ffffff"/>
<path d="M26.2671 24.8701C26.2671 24.0985 25.6415 23.4729 24.8699 23.4729C24.0982 23.4729 23.4727 24.0985 23.4727 24.8701C23.4727 25.6418 24.0982 26.2673 24.8699 26.2673C25.6415 26.2673 26.2671 25.6418 26.2671 24.8701Z" fill="#ffffff"/>
<path d="M49.7402 24.8701C49.7402 24.0985 49.1147 23.4729 48.343 23.4729C47.5713 23.4729 46.9458 24.0985 46.9458 24.8701C46.9458 25.6418 47.5713 26.2673 48.343 26.2673C49.1147 26.2673 49.7402 25.6418 49.7402 24.8701Z" fill="#ffffff"/>
<path d="M14.5307 24.8701C14.5307 24.0985 13.9052 23.4729 13.1335 23.4729C12.3619 23.4729 11.7363 24.0985 11.7363 24.8701C11.7363 25.6418 12.3619 26.2673 13.1335 26.2673C13.9052 26.2673 14.5307 25.6418 14.5307 24.8701Z" fill="#ffffff"/>
<path d="M38.0039 24.8701C38.0039 24.0984 37.3783 23.4729 36.6067 23.4729C35.835 23.4729 35.2095 24.0984 35.2095 24.8701C35.2095 25.6418 35.835 26.2673 36.6067 26.2673C37.3783 26.2673 38.0039 25.6418 38.0039 24.8701Z" fill="#ffffff"/>
<path d="M61.476 24.8701C61.476 24.0984 60.8505 23.4729 60.0788 23.4729C59.3072 23.4729 58.6816 24.0984 58.6816 24.8701C58.6816 25.6418 59.3072 26.2673 60.0788 26.2673C60.8505 26.2673 61.476 25.6418 61.476 24.8701Z" fill="#ffffff"/>
<path d="M2.7944 13.1336C2.7944 12.3619 2.16885 11.7364 1.3972 11.7364C0.625548 11.7364 0 12.3619 0 13.1336C0 13.9052 0.625548 14.5308 1.3972 14.5308C2.16885 14.5308 2.7944 13.9052 2.7944 13.1336Z" fill="#ffffff"/>
<path d="M26.2671 13.1336C26.2671 12.3619 25.6415 11.7364 24.8699 11.7364C24.0982 11.7364 23.4727 12.3619 23.4727 13.1336C23.4727 13.9052 24.0982 14.5308 24.8699 14.5308C25.6415 14.5308 26.2671 13.9052 26.2671 13.1336Z" fill="#ffffff"/>
<path d="M49.7402 13.1336C49.7402 12.3619 49.1147 11.7364 48.343 11.7364C47.5713 11.7364 46.9458 12.3619 46.9458 13.1336C46.9458 13.9052 47.5713 14.5308 48.343 14.5308C49.1147 14.5308 49.7402 13.9052 49.7402 13.1336Z" fill="#ffffff"/>
<path d="M14.5307 13.1336C14.5307 12.3619 13.9052 11.7364 13.1335 11.7364C12.3619 11.7364 11.7363 12.3619 11.7363 13.1336C11.7363 13.9052 12.3619 14.5308 13.1335 14.5308C13.9052 14.5308 14.5307 13.9052 14.5307 13.1336Z" fill="#ffffff"/>
<path d="M38.0039 13.1336C38.0039 12.3619 37.3783 11.7364 36.6067 11.7364C35.835 11.7364 35.2095 12.3619 35.2095 13.1336C35.2095 13.9052 35.835 14.5308 36.6067 14.5308C37.3783 14.5308 38.0039 13.9052 38.0039 13.1336Z" fill="#ffffff"/>
<path d="M61.476 13.1336C61.476 12.3619 60.8505 11.7364 60.0788 11.7364C59.3072 11.7364 58.6816 12.3619 58.6816 13.1336C58.6816 13.9052 59.3072 14.5308 60.0788 14.5308C60.8505 14.5308 61.476 13.9052 61.476 13.1336Z" fill="#ffffff"/>
<path d="M2.7944 36.6066C2.7944 35.8349 2.16885 35.2094 1.3972 35.2094C0.625549 35.2094 0 35.8349 0 36.6066C0 37.3782 0.625549 38.0038 1.3972 38.0038C2.16885 38.0038 2.7944 37.3782 2.7944 36.6066Z" fill="#ffffff"/>
<path d="M26.2671 36.6066C26.2671 35.8349 25.6415 35.2094 24.8699 35.2094C24.0982 35.2094 23.4727 35.8349 23.4727 36.6066C23.4727 37.3782 24.0982 38.0038 24.8699 38.0038C25.6415 38.0038 26.2671 37.3782 26.2671 36.6066Z" fill="#ffffff"/>
<path d="M49.7402 36.6066C49.7402 35.8349 49.1147 35.2094 48.343 35.2094C47.5714 35.2094 46.9458 35.8349 46.9458 36.6066C46.9458 37.3782 47.5714 38.0038 48.343 38.0038C49.1147 38.0038 49.7402 37.3782 49.7402 36.6066Z" fill="#ffffff"/>
<path d="M14.5307 36.6066C14.5307 35.8349 13.9052 35.2094 13.1335 35.2094C12.3619 35.2094 11.7363 35.8349 11.7363 36.6066C11.7363 37.3782 12.3619 38.0038 13.1335 38.0038C13.9052 38.0038 14.5307 37.3782 14.5307 36.6066Z" fill="#ffffff"/>
<path d="M38.0039 36.6066C38.0039 35.8349 37.3783 35.2094 36.6067 35.2094C35.835 35.2094 35.2095 35.8349 35.2095 36.6066C35.2095 37.3782 35.835 38.0038 36.6067 38.0038C37.3783 38.0038 38.0039 37.3782 38.0039 36.6066Z" fill="#ffffff"/>
<path d="M61.476 36.6066C61.476 35.8349 60.8505 35.2094 60.0788 35.2094C59.3072 35.2094 58.6816 35.8349 58.6816 36.6066C58.6816 37.3782 59.3072 38.0038 60.0788 38.0038C60.8505 38.0038 61.476 37.3782 61.476 36.6066Z" fill="#ffffff"/>
<path d="M2.7944 1.39705C2.7944 0.625398 2.16885 -0.000149488 1.3972 -0.000149488C0.625548 -0.000149488 0 0.625398 0 1.39705C0 2.1687 0.625548 2.79425 1.3972 2.79425C2.16885 2.79425 2.7944 2.1687 2.7944 1.39705Z" fill="#ffffff"/>
<path d="M26.2671 1.39705C26.2671 0.625399 25.6415 -0.000148773 24.8699 -0.000148773C24.0982 -0.000148773 23.4727 0.625399 23.4727 1.39705C23.4727 2.1687 24.0982 2.79425 24.8699 2.79425C25.6415 2.79425 26.2671 2.1687 26.2671 1.39705Z" fill="#ffffff"/>
<path d="M49.7402 1.39705C49.7402 0.625401 49.1147 -0.000148773 48.343 -0.000148773C47.5713 -0.000148773 46.9458 0.625401 46.9458 1.39705C46.9458 2.16871 47.5713 2.79425 48.343 2.79425C49.1147 2.79425 49.7402 2.16871 49.7402 1.39705Z" fill="#ffffff"/>
<path d="M14.5307 1.39705C14.5307 0.625399 13.9052 -0.000148773 13.1335 -0.000148773C12.3619 -0.000148773 11.7363 0.625399 11.7363 1.39705C11.7363 2.1687 12.3619 2.79425 13.1335 2.79425C13.9052 2.79425 14.5307 2.1687 14.5307 1.39705Z" fill="#ffffff"/>
<path d="M38.0034 1.39705C38.0034 0.625397 37.3778 -0.000148773 36.6062 -0.000148773C35.8345 -0.000148773 35.209 0.625397 35.209 1.39705C35.209 2.1687 35.8345 2.79425 36.6062 2.79425C37.3778 2.79425 38.0034 2.1687 38.0034 1.39705Z" fill="#ffffff"/>
<path d="M61.476 1.39705C61.476 0.625397 60.8505 -0.000152588 60.0788 -0.000152588C59.3072 -0.000152588 58.6816 0.625397 58.6816 1.39705C58.6816 2.1687 59.3072 2.79425 60.0788 2.79425C60.8505 2.79425 61.476 2.1687 61.476 1.39705Z" fill="#ffffff"/>
</g>
<defs>
<clipPath id="clip0">
<rect width="62" height="85" fill="white"/>
</clipPath>
</defs>
</svg>
