<svg xmlns="http://www.w3.org/2000/svg" viewBox="0 0 1214 482" width="1214" height="482">
	<defs>
		<clipPath clipPathUnits="userSpaceOnUse" id="cp1">
			<path d="M-193 -559L1407 -559L1407 1041L-193 1041Z" />
		</clipPath>
		<linearGradient id="grd1" gradientUnits="userSpaceOnUse"  x1="54.794" y1="481.695" x2="54.794" y2="317.716">
			<stop offset="0" stop-color="#f25d4f"  />
			<stop offset="0.695" stop-color="#ef3870"  />
			<stop offset="1" stop-color="#ef3870"  />
		</linearGradient>
		<linearGradient id="grd2" gradientUnits="userSpaceOnUse"  x1="82.66" y1="386.778" x2="82.66" y2="0.305">
			<stop offset="0" stop-color="#362b80"  />
			<stop offset="1" stop-color="#7c4c9e"  />
		</linearGradient>
		<linearGradient id="grd3" gradientUnits="userSpaceOnUse"  x1="109.397" y1="185.584" x2="297.917" y2="185.584">
			<stop offset="0" stop-color="#1897c5"  />
			<stop offset="1" stop-color="#59bec5"  />
		</linearGradient>
	</defs>
	<style>
		tspan { white-space:pre }
		.shp0 { fill: url(#grd1) } 
		.shp1 { fill: url(#grd2) } 
		.shp2 { fill: url(#grd3) } 
		.shp3 { fill: #ffffff } 
	</style>
	<g id="Page 1" clip-path="url(#cp1)">
		<path id="Path 1" class="shp0" d="M0.19 379.29L0.19 427.09C0.19 457.25 24.64 481.7 54.79 481.7L54.8 481.7C84.95 481.7 109.4 457.25 109.4 427.09L109.4 317.72L0.19 379.29Z" />
		<path id="Path 2" class="shp1" d="M0.19 55.31L0.19 386.78L109.4 323.04L111.78 81.95L165.13 56.69C165.13 56.69 119.55 29.79 104.35 20.83C100.3 18.44 100.3 18.44 88.16 11.28C84.34 9.02 79.25 5.91 75.08 4.23C68.81 1.7 61.96 0.3 54.79 0.3C24.64 0.3 0.19 24.93 0.19 55.31Z" />
		<path id="Path 3" class="shp2" d="M109.4 80.51L109.4 173.99L109.4 323.04L224.75 256.81L277.2 226.53C317.65 203.18 317.65 144.8 277.2 121.44L224.75 91.16L157.91 52.52C152.7 49.5 147.17 48.13 141.78 48.13C124.89 48.13 109.4 61.64 109.4 80.51Z" />
		<path id="Path 4" fill-rule="evenodd" class="shp3" d="M594.69 244.46C588.86 255.24 579.74 263.92 567.32 270.51C554.9 277.11 539.23 280.41 520.33 280.41L481.75 280.41L481.75 368.78L435.58 368.78L435.58 138.61L520.33 138.61C538.14 138.61 553.3 141.69 565.84 147.84C578.37 154 587.76 162.47 594.03 173.24C600.3 184.01 603.43 196.21 603.43 209.84C603.43 222.15 600.51 233.7 594.69 244.46ZM546.71 234.41C552.86 228.58 555.94 220.39 555.94 209.84C555.94 187.41 543.41 176.2 518.35 176.2L481.75 176.2L481.75 243.14L518.35 243.14C531.1 243.14 540.55 240.23 546.71 234.41ZM682.24 368.78L636.07 368.78L636.07 186.1L682.24 186.1L682.24 368.78ZM639.2 156.58C633.81 151.42 631.12 144.99 631.12 137.29C631.12 129.6 633.81 123.17 639.2 118C644.59 112.84 651.35 110.25 659.48 110.25C667.62 110.25 674.37 112.84 679.77 118C685.15 123.17 687.84 129.6 687.84 137.29C687.84 144.99 685.15 151.42 679.77 156.58C674.37 161.75 667.62 164.33 659.48 164.33C651.35 164.33 644.59 161.75 639.2 156.58ZM757.42 363.67C745.55 358.29 736.15 350.97 729.23 341.74C722.3 332.51 718.51 322.29 717.85 311.07L764.35 311.07C765.22 318.11 768.69 323.94 774.74 328.55C780.78 333.17 788.31 335.48 797.32 335.48C806.11 335.48 812.99 333.72 817.93 330.2C822.88 326.69 825.35 322.18 825.35 316.68C825.35 310.74 822.33 306.29 816.29 303.32C810.23 300.36 800.62 297.12 787.43 293.6C773.8 290.3 762.64 286.89 753.96 283.37C745.27 279.86 737.8 274.47 731.54 267.22C725.27 259.96 722.14 250.18 722.14 237.87C722.14 227.76 725.05 218.53 730.88 210.17C736.7 201.82 745.05 195.22 755.94 190.38C766.82 185.55 779.63 183.13 794.36 183.13C816.12 183.13 833.48 188.57 846.46 199.45C859.43 210.33 866.57 225.01 867.89 243.47L823.71 243.47C823.05 236.22 820.02 230.45 814.63 226.16C809.25 221.87 802.05 219.73 793.04 219.73C784.68 219.73 778.25 221.27 773.74 224.35C769.24 227.43 766.98 231.72 766.98 237.21C766.98 243.37 770.06 248.04 776.22 251.22C782.37 254.41 791.93 257.65 804.91 260.95C818.1 264.25 828.98 267.66 837.55 271.17C846.13 274.69 853.55 280.13 859.81 287.5C866.08 294.87 869.32 304.59 869.54 316.68C869.54 327.23 866.63 336.69 860.8 345.04C854.97 353.4 846.62 359.94 835.74 364.66C824.86 369.38 812.16 371.75 797.65 371.75C782.7 371.75 769.29 369.05 757.42 363.67ZM961.21 224.02L961.21 312.39C961.21 318.55 962.7 323 965.67 325.75C968.63 328.5 973.63 329.87 980.67 329.87L1002.1 329.87L1002.1 368.78L973.09 368.78C934.17 368.78 914.72 349.88 914.72 312.06L914.72 224.02L892.95 224.02L892.95 186.1L914.72 186.1L914.72 140.92L961.21 140.92L961.21 186.1L1002.1 186.1L1002.1 224.02L961.21 224.02ZM1034.58 227.64C1041.94 213.36 1051.95 202.37 1064.59 194.67C1077.23 186.98 1091.35 183.13 1106.97 183.13C1120.59 183.13 1132.52 185.88 1142.74 191.37C1152.97 196.87 1161.15 203.79 1167.31 212.15L1167.31 186.09L1213.81 186.09L1213.81 368.78L1167.31 368.78L1167.31 342.07C1161.37 350.65 1153.18 357.73 1142.74 363.34C1132.3 368.95 1120.26 371.75 1106.63 371.75C1091.25 371.75 1077.23 367.79 1064.59 359.88C1051.95 351.96 1041.94 340.81 1034.58 326.41C1027.21 312.01 1023.53 295.47 1023.53 276.78C1023.53 258.31 1027.21 241.94 1034.58 227.64ZM1160.72 248.59C1156.32 240.56 1150.38 234.41 1142.91 230.12C1135.43 225.83 1127.41 223.69 1118.84 223.69C1110.26 223.69 1102.35 225.78 1095.09 229.95C1087.84 234.13 1081.95 240.23 1077.45 248.26C1072.94 256.28 1070.69 265.79 1070.69 276.78C1070.69 287.77 1072.94 297.39 1077.45 305.63C1081.95 313.88 1087.89 320.2 1095.26 324.6C1102.62 328.99 1110.48 331.19 1118.84 331.19C1127.41 331.19 1135.43 329.05 1142.91 324.76C1150.38 320.47 1156.32 314.32 1160.72 306.29C1165.11 298.27 1167.31 288.65 1167.31 277.44C1167.31 266.23 1165.11 256.61 1160.72 248.59Z" />
	</g>
</svg>