<svg xmlns="http://www.w3.org/2000/svg" width="535" height="404" viewBox="0 0 535 404"><defs><mask id="ze74b" width="2" height="2" x="-1" y="-1"><path fill="#fff" d="M111 95h142v70H111z"/><path d="M111.8 95h140.731v69.95H111.8z"/></mask><filter id="ze74a" width="222" height="150" x="71" y="55" filterUnits="userSpaceOnUse"><feOffset in="SourceGraphic" result="FeOffset3003Out"/><feGaussianBlur in="FeOffset3003Out" result="FeGaussianBlur3004Out" stdDeviation="12 12"/></filter></defs><g><g><g><g><g transform="rotate(-90 271 76)"><g><g><path fill="#fff" fill-opacity=".1" d="M242 23.5a2.5 2.5 0 1 1-5 0 2.5 2.5 0 0 1 5 0z"/></g><g><path fill="#fff" fill-opacity=".1" d="M221 23.5a2.5 2.5 0 1 1-5 0 2.5 2.5 0 0 1 5 0z"/></g><g><path fill="#fff" fill-opacity=".1" d="M200 23.5a2.5 2.5 0 1 1-5 0 2.5 2.5 0 0 1 5 0z"/></g><g><path fill="#fff" fill-opacity=".1" d="M242 65.5a2.5 2.5 0 1 1-5 0 2.5 2.5 0 0 1 5 0z"/></g><g><path fill="#fff" fill-opacity=".1" d="M221 65.5a2.5 2.5 0 1 1-5 0 2.5 2.5 0 0 1 5 0z"/></g><g><path fill="#fff" fill-opacity=".1" d="M200 65.5a2.5 2.5 0 1 1-5 0 2.5 2.5 0 0 1 5 0z"/></g><g><path fill="#fff" fill-opacity=".1" d="M242 107.5a2.5 2.5 0 1 1-5 0 2.5 2.5 0 0 1 5 0z"/></g><g><path fill="#fff" fill-opacity=".1" d="M242 44.5a2.5 2.5 0 1 1-5 0 2.5 2.5 0 0 1 5 0z"/></g><g><path fill="#fff" fill-opacity=".1" d="M221 44.5a2.5 2.5 0 1 1-5 0 2.5 2.5 0 0 1 5 0z"/></g><g><path fill="#fff" fill-opacity=".1" d="M200 44.5a2.5 2.5 0 1 1-5 0 2.5 2.5 0 0 1 5 0z"/></g><g><path fill="#fff" fill-opacity=".1" d="M242 86.5a2.5 2.5 0 1 1-5 0 2.5 2.5 0 0 1 5 0z"/></g><g><path fill="#fff" fill-opacity=".1" d="M221 86.5a2.5 2.5 0 1 1-5 0 2.5 2.5 0 0 1 5 0z"/></g><g><path fill="#fff" fill-opacity=".1" d="M200 86.5a2.5 2.5 0 1 1-5 0 2.5 2.5 0 0 1 5 0z"/></g><g><path fill="#fff" fill-opacity=".1" d="M242 128.5a2.5 2.5 0 1 1-5 0 2.5 2.5 0 0 1 5 0z"/></g><g><path fill="#fff" fill-opacity=".1" d="M305 23.5a2.5 2.5 0 1 1-5 0 2.5 2.5 0 0 1 5 0z"/></g><g><path fill="#fff" fill-opacity=".1" d="M305 65.5a2.5 2.5 0 1 1-5 0 2.5 2.5 0 0 1 5 0z"/></g><g><path fill="#fff" fill-opacity=".1" d="M305 107.5a2.5 2.5 0 1 1-5 0 2.5 2.5 0 0 1 5 0z"/></g><g><path fill="#fff" fill-opacity=".1" d="M305 44.5a2.5 2.5 0 1 1-5 0 2.5 2.5 0 0 1 5 0z"/></g><g><path fill="#fff" fill-opacity=".1" d="M305 86.5a2.5 2.5 0 1 1-5 0 2.5 2.5 0 0 1 5 0z"/></g><g><path fill="#fff" fill-opacity=".1" d="M305 128.5a2.5 2.5 0 1 1-5 0 2.5 2.5 0 0 1 5 0z"/></g><g><path fill="#fff" fill-opacity=".1" d="M263 23.5a2.5 2.5 0 1 1-5 0 2.5 2.5 0 0 1 5 0z"/></g><g><path fill="#fff" fill-opacity=".1" d="M263 65.5a2.5 2.5 0 1 1-5 0 2.5 2.5 0 0 1 5 0z"/></g><g><path fill="#fff" fill-opacity=".1" d="M263 107.5a2.5 2.5 0 1 1-5 0 2.5 2.5 0 0 1 5 0z"/></g><g><path fill="#fff" fill-opacity=".1" d="M263 44.5a2.5 2.5 0 1 1-5 0 2.5 2.5 0 0 1 5 0z"/></g><g><path fill="#fff" fill-opacity=".1" d="M263 86.5a2.5 2.5 0 1 1-5 0 2.5 2.5 0 0 1 5 0z"/></g><g><path fill="#fff" fill-opacity=".1" d="M263 128.5a2.5 2.5 0 1 1-5 0 2.5 2.5 0 0 1 5 0z"/></g><g><path fill="#fff" fill-opacity=".1" d="M326 23.5a2.5 2.5 0 1 1-5 0 2.5 2.5 0 0 1 5 0z"/></g><g><path fill="#fff" fill-opacity=".1" d="M326 65.5a2.5 2.5 0 1 1-5 0 2.5 2.5 0 0 1 5 0z"/></g><g><path fill="#fff" fill-opacity=".1" d="M326 107.5a2.5 2.5 0 1 1-5 0 2.5 2.5 0 0 1 5 0z"/></g><g><path fill="#fff" fill-opacity=".1" d="M326 44.5a2.5 2.5 0 1 1-5 0 2.5 2.5 0 0 1 5 0z"/></g><g><path fill="#fff" fill-opacity=".1" d="M326 86.5a2.5 2.5 0 1 1-5 0 2.5 2.5 0 0 1 5 0z"/></g><g><path fill="#fff" fill-opacity=".1" d="M326 128.5a2.5 2.5 0 1 1-5 0 2.5 2.5 0 0 1 5 0z"/></g><g><path fill="#fff" fill-opacity=".1" d="M284 23.5a2.5 2.5 0 1 1-5 0 2.5 2.5 0 0 1 5 0z"/></g><g><path fill="#fff" fill-opacity=".1" d="M284 65.5a2.5 2.5 0 1 1-5 0 2.5 2.5 0 0 1 5 0z"/></g><g><path fill="#fff" fill-opacity=".1" d="M284 107.5a2.5 2.5 0 1 1-5 0 2.5 2.5 0 0 1 5 0z"/></g><g><path fill="#fff" fill-opacity=".1" d="M284 44.5a2.5 2.5 0 1 1-5 0 2.5 2.5 0 0 1 5 0z"/></g><g><path fill="#fff" fill-opacity=".1" d="M284 86.5a2.5 2.5 0 1 1-5 0 2.5 2.5 0 0 1 5 0z"/></g><g><path fill="#fff" fill-opacity=".1" d="M284 128.5a2.5 2.5 0 1 1-5 0 2.5 2.5 0 0 1 5 0z"/></g><g><path fill="#fff" fill-opacity=".1" d="M347 23.5a2.5 2.5 0 1 1-5 0 2.5 2.5 0 0 1 5 0z"/></g><g><path fill="#fff" fill-opacity=".1" d="M347 65.5a2.5 2.5 0 1 1-5 0 2.5 2.5 0 0 1 5 0z"/></g><g><path fill="#fff" fill-opacity=".1" d="M347 107.5a2.5 2.5 0 1 1-5 0 2.5 2.5 0 0 1 5 0z"/></g><g><path fill="#fff" fill-opacity=".1" d="M347 44.5a2.5 2.5 0 1 1-5 0 2.5 2.5 0 0 1 5 0z"/></g><g><path fill="#fff" fill-opacity=".1" d="M347 86.5a2.5 2.5 0 1 1-5 0 2.5 2.5 0 0 1 5 0z"/></g><g><path fill="#fff" fill-opacity=".1" d="M347 128.5a2.5 2.5 0 1 1-5 0 2.5 2.5 0 0 1 5 0z"/></g></g></g><g transform="rotate(-90 407.5 191.5)"><g><g><path fill="#fff" fill-opacity=".1" d="M368 107.5a2.5 2.5 0 1 1-5 0 2.5 2.5 0 0 1 5 0z"/></g><g><path fill="#fff" fill-opacity=".1" d="M347 107.5a2.5 2.5 0 1 1-5 0 2.5 2.5 0 0 1 5 0z"/></g><g><path fill="#fff" fill-opacity=".1" d="M326 107.5a2.5 2.5 0 1 1-5 0 2.5 2.5 0 0 1 5 0z"/></g><g><path fill="#fff" fill-opacity=".1" d="M368 149.5a2.5 2.5 0 1 1-5 0 2.5 2.5 0 0 1 5 0z"/></g><g><path fill="#fff" fill-opacity=".1" d="M347 149.5a2.5 2.5 0 1 1-5 0 2.5 2.5 0 0 1 5 0z"/></g><g><path fill="#fff" fill-opacity=".1" d="M326 149.5a2.5 2.5 0 1 1-5 0 2.5 2.5 0 0 1 5 0z"/></g><g><path fill="#fff" fill-opacity=".1" d="M368 191.5a2.5 2.5 0 1 1-5 0 2.5 2.5 0 0 1 5 0z"/></g><g><path fill="#fff" fill-opacity=".1" d="M347 191.5a2.5 2.5 0 1 1-5 0 2.5 2.5 0 0 1 5 0z"/></g><g><path fill="#fff" fill-opacity=".1" d="M326 191.5a2.5 2.5 0 1 1-5 0 2.5 2.5 0 0 1 5 0z"/></g><g><path fill="#fff" fill-opacity=".1" d="M368 128.5a2.5 2.5 0 1 1-5 0 2.5 2.5 0 0 1 5 0z"/></g><g><path fill="#fff" fill-opacity=".1" d="M347 128.5a2.5 2.5 0 1 1-5 0 2.5 2.5 0 0 1 5 0z"/></g><g><path fill="#fff" fill-opacity=".1" d="M326 128.5a2.5 2.5 0 1 1-5 0 2.5 2.5 0 0 1 5 0z"/></g><g><path fill="#fff" fill-opacity=".1" d="M368 170.5a2.5 2.5 0 1 1-5 0 2.5 2.5 0 0 1 5 0z"/></g><g><path fill="#fff" fill-opacity=".1" d="M347 170.5a2.5 2.5 0 1 1-5 0 2.5 2.5 0 0 1 5 0z"/></g><g><path fill="#fff" fill-opacity=".1" d="M326 170.5a2.5 2.5 0 1 1-5 0 2.5 2.5 0 0 1 5 0z"/></g><g><path fill="#fff" fill-opacity=".1" d="M368 212.5a2.5 2.5 0 1 1-5 0 2.5 2.5 0 0 1 5 0z"/></g><g><path fill="#fff" fill-opacity=".1" d="M368 233.5a2.5 2.5 0 1 1-5 0 2.5 2.5 0 0 1 5 0z"/></g><g><path fill="#fff" fill-opacity=".1" d="M368 254.5a2.5 2.5 0 1 1-5 0 2.5 2.5 0 0 1 5 0z"/></g><g><path fill="#fff" fill-opacity=".1" d="M368 275.5a2.5 2.5 0 1 1-5 0 2.5 2.5 0 0 1 5 0z"/></g><g><path fill="#fff" fill-opacity=".1" d="M347 212.5a2.5 2.5 0 1 1-5 0 2.5 2.5 0 0 1 5 0z"/></g><g><path fill="#fff" fill-opacity=".1" d="M347 233.5a2.5 2.5 0 1 1-5 0 2.5 2.5 0 0 1 5 0z"/></g><g><path fill="#fff" fill-opacity=".1" d="M347 254.5a2.5 2.5 0 1 1-5 0 2.5 2.5 0 0 1 5 0z"/></g><g><path fill="#fff" fill-opacity=".1" d="M347 275.5a2.5 2.5 0 1 1-5 0 2.5 2.5 0 0 1 5 0z"/></g><g><path fill="#fff" fill-opacity=".1" d="M326 212.5a2.5 2.5 0 1 1-5 0 2.5 2.5 0 0 1 5 0z"/></g><g><path fill="#fff" fill-opacity=".1" d="M305 212.5a2.5 2.5 0 1 1-5 0 2.5 2.5 0 0 1 5 0z"/></g><g><path fill="#fff" fill-opacity=".1" d="M284 212.5a2.5 2.5 0 1 1-5 0 2.5 2.5 0 0 1 5 0z"/></g><g><path fill="#fff" fill-opacity=".1" d="M263 212.5a2.5 2.5 0 1 1-5 0 2.5 2.5 0 0 1 5 0z"/></g><g><path fill="#fff" fill-opacity=".1" d="M326 233.5a2.5 2.5 0 1 1-5 0 2.5 2.5 0 0 1 5 0z"/></g><g><path fill="#fff" fill-opacity=".1" d="M305 233.5a2.5 2.5 0 1 1-5 0 2.5 2.5 0 0 1 5 0z"/></g><g><path fill="#fff" fill-opacity=".1" d="M284 233.5a2.5 2.5 0 1 1-5 0 2.5 2.5 0 0 1 5 0z"/></g><g><path fill="#fff" fill-opacity=".1" d="M263 233.5a2.5 2.5 0 1 1-5 0 2.5 2.5 0 0 1 5 0z"/></g><g><path fill="#fff" fill-opacity=".1" d="M326 254.5a2.5 2.5 0 1 1-5 0 2.5 2.5 0 0 1 5 0z"/></g><g><path fill="#fff" fill-opacity=".1" d="M305 254.5a2.5 2.5 0 1 1-5 0 2.5 2.5 0 0 1 5 0z"/></g><g><path fill="#fff" fill-opacity=".1" d="M284 254.5a2.5 2.5 0 1 1-5 0 2.5 2.5 0 0 1 5 0z"/></g><g><path fill="#fff" fill-opacity=".1" d="M263 254.5a2.5 2.5 0 1 1-5 0 2.5 2.5 0 0 1 5 0z"/></g><g><path fill="#fff" fill-opacity=".1" d="M326 275.5a2.5 2.5 0 1 1-5 0 2.5 2.5 0 0 1 5 0z"/></g><g><path fill="#fff" fill-opacity=".1" d="M305 275.5a2.5 2.5 0 1 1-5 0 2.5 2.5 0 0 1 5 0z"/></g><g><path fill="#fff" fill-opacity=".1" d="M284 275.5a2.5 2.5 0 1 1-5 0 2.5 2.5 0 0 1 5 0z"/></g><g><path fill="#fff" fill-opacity=".1" d="M263 275.5a2.5 2.5 0 1 1-5 0 2.5 2.5 0 0 1 5 0z"/></g><g><path fill="#fff" fill-opacity=".1" d="M431 107.5a2.5 2.5 0 1 1-5 0 2.5 2.5 0 0 1 5 0z"/></g><g><path fill="#fff" fill-opacity=".1" d="M431 149.5a2.5 2.5 0 1 1-5 0 2.5 2.5 0 0 1 5 0z"/></g><g><path fill="#fff" fill-opacity=".1" d="M431 191.5a2.5 2.5 0 1 1-5 0 2.5 2.5 0 0 1 5 0z"/></g><g><path fill="#fff" fill-opacity=".1" d="M431 128.5a2.5 2.5 0 1 1-5 0 2.5 2.5 0 0 1 5 0z"/></g><g><path fill="#fff" fill-opacity=".1" d="M431 170.5a2.5 2.5 0 1 1-5 0 2.5 2.5 0 0 1 5 0z"/></g><g><path fill="#fff" fill-opacity=".1" d="M431 212.5a2.5 2.5 0 1 1-5 0 2.5 2.5 0 0 1 5 0z"/></g><g><path fill="#fff" fill-opacity=".1" d="M431 233.5a2.5 2.5 0 1 1-5 0 2.5 2.5 0 0 1 5 0z"/></g><g><path fill="#fff" fill-opacity=".1" d="M431 254.5a2.5 2.5 0 1 1-5 0 2.5 2.5 0 0 1 5 0z"/></g><g><path fill="#fff" fill-opacity=".1" d="M431 275.5a2.5 2.5 0 1 1-5 0 2.5 2.5 0 0 1 5 0z"/></g><g><path fill="#fff" fill-opacity=".1" d="M389 107.5a2.5 2.5 0 1 1-5 0 2.5 2.5 0 0 1 5 0z"/></g><g><path fill="#fff" fill-opacity=".1" d="M389 149.5a2.5 2.5 0 1 1-5 0 2.5 2.5 0 0 1 5 0z"/></g><g><path fill="#fff" fill-opacity=".1" d="M389 191.5a2.5 2.5 0 1 1-5 0 2.5 2.5 0 0 1 5 0z"/></g><g><path fill="#fff" fill-opacity=".1" d="M389 128.5a2.5 2.5 0 1 1-5 0 2.5 2.5 0 0 1 5 0z"/></g><g><path fill="#fff" fill-opacity=".1" d="M389 170.5a2.5 2.5 0 1 1-5 0 2.5 2.5 0 0 1 5 0z"/></g><g><path fill="#fff" fill-opacity=".1" d="M389 212.5a2.5 2.5 0 1 1-5 0 2.5 2.5 0 0 1 5 0z"/></g><g><path fill="#fff" fill-opacity=".1" d="M389 233.5a2.5 2.5 0 1 1-5 0 2.5 2.5 0 0 1 5 0z"/></g><g><path fill="#fff" fill-opacity=".1" d="M389 254.5a2.5 2.5 0 1 1-5 0 2.5 2.5 0 0 1 5 0z"/></g><g><path fill="#fff" fill-opacity=".1" d="M389 275.5a2.5 2.5 0 1 1-5 0 2.5 2.5 0 0 1 5 0z"/></g><g><path fill="#fff" fill-opacity=".1" d="M452 107.5a2.5 2.5 0 1 1-5 0 2.5 2.5 0 0 1 5 0z"/></g><g><path fill="#fff" fill-opacity=".1" d="M452 149.5a2.5 2.5 0 1 1-5 0 2.5 2.5 0 0 1 5 0z"/></g><g><path fill="#fff" fill-opacity=".1" d="M452 191.5a2.5 2.5 0 1 1-5 0 2.5 2.5 0 0 1 5 0z"/></g><g><path fill="#fff" fill-opacity=".1" d="M452 128.5a2.5 2.5 0 1 1-5 0 2.5 2.5 0 0 1 5 0z"/></g><g><path fill="#fff" fill-opacity=".1" d="M452 170.5a2.5 2.5 0 1 1-5 0 2.5 2.5 0 0 1 5 0z"/></g><g><path fill="#fff" fill-opacity=".1" d="M452 212.5a2.5 2.5 0 1 1-5 0 2.5 2.5 0 0 1 5 0z"/></g><g><path fill="#fff" fill-opacity=".1" d="M410 107.5a2.5 2.5 0 1 1-5 0 2.5 2.5 0 0 1 5 0z"/></g><g><path fill="#fff" fill-opacity=".1" d="M410 149.5a2.5 2.5 0 1 1-5 0 2.5 2.5 0 0 1 5 0z"/></g><g><path fill="#fff" fill-opacity=".1" d="M515 149.5a2.5 2.5 0 1 1-5 0 2.5 2.5 0 0 1 5 0z"/></g><g><path fill="#fff" fill-opacity=".1" d="M494 149.5a2.5 2.5 0 1 1-5 0 2.5 2.5 0 0 1 5 0z"/></g><g><path fill="#fff" fill-opacity=".1" d="M536 149.5a2.5 2.5 0 1 1-5 0 2.5 2.5 0 0 1 5 0z"/></g><g><path fill="#fff" fill-opacity=".1" d="M557 149.5a2.5 2.5 0 1 1-5 0 2.5 2.5 0 0 1 5 0z"/></g><g><path fill="#fff" fill-opacity=".1" d="M410 191.5a2.5 2.5 0 1 1-5 0 2.5 2.5 0 0 1 5 0z"/></g><g><path fill="#fff" fill-opacity=".1" d="M515 191.5a2.5 2.5 0 1 1-5 0 2.5 2.5 0 0 1 5 0z"/></g><g><path fill="#fff" fill-opacity=".1" d="M494 191.5a2.5 2.5 0 1 1-5 0 2.5 2.5 0 0 1 5 0z"/></g><g><path fill="#fff" fill-opacity=".1" d="M536 191.5a2.5 2.5 0 1 1-5 0 2.5 2.5 0 0 1 5 0z"/></g><g><path fill="#fff" fill-opacity=".1" d="M557 191.5a2.5 2.5 0 1 1-5 0 2.5 2.5 0 0 1 5 0z"/></g><g><path fill="#fff" fill-opacity=".1" d="M410 128.5a2.5 2.5 0 1 1-5 0 2.5 2.5 0 0 1 5 0z"/></g><g><path fill="#fff" fill-opacity=".1" d="M515 128.5a2.5 2.5 0 1 1-5 0 2.5 2.5 0 0 1 5 0z"/></g><g><path fill="#fff" fill-opacity=".1" d="M494 128.5a2.5 2.5 0 1 1-5 0 2.5 2.5 0 0 1 5 0z"/></g><g><path fill="#fff" fill-opacity=".1" d="M536 128.5a2.5 2.5 0 1 1-5 0 2.5 2.5 0 0 1 5 0z"/></g><g><path fill="#fff" fill-opacity=".1" d="M557 128.5a2.5 2.5 0 1 1-5 0 2.5 2.5 0 0 1 5 0z"/></g><g><path fill="#fff" fill-opacity=".1" d="M410 170.5a2.5 2.5 0 1 1-5 0 2.5 2.5 0 0 1 5 0z"/></g><g><path fill="#fff" fill-opacity=".1" d="M515 170.5a2.5 2.5 0 1 1-5 0 2.5 2.5 0 0 1 5 0z"/></g><g><path fill="#fff" fill-opacity=".1" d="M494 170.5a2.5 2.5 0 1 1-5 0 2.5 2.5 0 0 1 5 0z"/></g><g><path fill="#fff" fill-opacity=".1" d="M536 170.5a2.5 2.5 0 1 1-5 0 2.5 2.5 0 0 1 5 0z"/></g><g><path fill="#fff" fill-opacity=".1" d="M557 170.5a2.5 2.5 0 1 1-5 0 2.5 2.5 0 0 1 5 0z"/></g><g><path fill="#fff" fill-opacity=".1" d="M410 212.5a2.5 2.5 0 1 1-5 0 2.5 2.5 0 0 1 5 0z"/></g><g><path fill="#fff" fill-opacity=".1" d="M515 212.5a2.5 2.5 0 1 1-5 0 2.5 2.5 0 0 1 5 0z"/></g><g><path fill="#fff" fill-opacity=".1" d="M494 212.5a2.5 2.5 0 1 1-5 0 2.5 2.5 0 0 1 5 0z"/></g><g><path fill="#fff" fill-opacity=".1" d="M536 212.5a2.5 2.5 0 1 1-5 0 2.5 2.5 0 0 1 5 0z"/></g><g><path fill="#fff" fill-opacity=".1" d="M557 212.5a2.5 2.5 0 1 1-5 0 2.5 2.5 0 0 1 5 0z"/></g><g><path fill="#fff" fill-opacity=".1" d="M410 233.5a2.5 2.5 0 1 1-5 0 2.5 2.5 0 0 1 5 0z"/></g><g><path fill="#fff" fill-opacity=".1" d="M515 233.5a2.5 2.5 0 1 1-5 0 2.5 2.5 0 0 1 5 0z"/></g><g><path fill="#fff" fill-opacity=".1" d="M494 233.5a2.5 2.5 0 1 1-5 0 2.5 2.5 0 0 1 5 0z"/></g><g><path fill="#fff" fill-opacity=".1" d="M536 233.5a2.5 2.5 0 1 1-5 0 2.5 2.5 0 0 1 5 0z"/></g><g><path fill="#fff" fill-opacity=".1" d="M557 233.5a2.5 2.5 0 1 1-5 0 2.5 2.5 0 0 1 5 0z"/></g><g><path fill="#fff" fill-opacity=".1" d="M410 254.5a2.5 2.5 0 1 1-5 0 2.5 2.5 0 0 1 5 0z"/></g><g><path fill="#fff" fill-opacity=".1" d="M515 254.5a2.5 2.5 0 1 1-5 0 2.5 2.5 0 0 1 5 0z"/></g><g><path fill="#fff" fill-opacity=".1" d="M494 254.5a2.5 2.5 0 1 1-5 0 2.5 2.5 0 0 1 5 0z"/></g><g><path fill="#fff" fill-opacity=".1" d="M536 254.5a2.5 2.5 0 1 1-5 0 2.5 2.5 0 0 1 5 0z"/></g><g><path fill="#fff" fill-opacity=".1" d="M557 254.5a2.5 2.5 0 1 1-5 0 2.5 2.5 0 0 1 5 0z"/></g><g><path fill="#fff" fill-opacity=".1" d="M410 275.5a2.5 2.5 0 1 1-5 0 2.5 2.5 0 0 1 5 0z"/></g><g><path fill="#fff" fill-opacity=".1" d="M515 275.5a2.5 2.5 0 1 1-5 0 2.5 2.5 0 0 1 5 0z"/></g><g><path fill="#fff" fill-opacity=".1" d="M494 275.5a2.5 2.5 0 1 1-5 0 2.5 2.5 0 0 1 5 0z"/></g><g><path fill="#fff" fill-opacity=".1" d="M536 275.5a2.5 2.5 0 1 1-5 0 2.5 2.5 0 0 1 5 0z"/></g><g><path fill="#fff" fill-opacity=".1" d="M557 275.5a2.5 2.5 0 1 1-5 0 2.5 2.5 0 0 1 5 0z"/></g><g><path fill="#fff" fill-opacity=".1" d="M473 107.5a2.5 2.5 0 1 1-5 0 2.5 2.5 0 0 1 5 0z"/></g><g><path fill="#fff" fill-opacity=".1" d="M473 149.5a2.5 2.5 0 1 1-5 0 2.5 2.5 0 0 1 5 0z"/></g><g><path fill="#fff" fill-opacity=".1" d="M473 191.5a2.5 2.5 0 1 1-5 0 2.5 2.5 0 0 1 5 0z"/></g><g><path fill="#fff" fill-opacity=".1" d="M473 128.5a2.5 2.5 0 1 1-5 0 2.5 2.5 0 0 1 5 0z"/></g><g><path fill="#fff" fill-opacity=".1" d="M473 170.5a2.5 2.5 0 1 1-5 0 2.5 2.5 0 0 1 5 0z"/></g><g><path fill="#fff" fill-opacity=".1" d="M473 212.5a2.5 2.5 0 1 1-5 0 2.5 2.5 0 0 1 5 0z"/></g></g></g><g transform="rotate(-90 113.5 223)"><g><g><path fill="#fff" fill-opacity=".1" d="M63.5 202a2.5 2.5 0 1 1-5 0 2.5 2.5 0 0 1 5 0z"/></g><g><path fill="#fff" fill-opacity=".1" d="M63.5 244a2.5 2.5 0 1 1-5 0 2.5 2.5 0 0 1 5 0z"/></g><g><path fill="#fff" fill-opacity=".1" d="M63.5 286a2.5 2.5 0 1 1-5 0 2.5 2.5 0 0 1 5 0z"/></g><g><path fill="#fff" fill-opacity=".1" d="M63.5 223a2.5 2.5 0 1 1-5 0 2.5 2.5 0 0 1 5 0z"/></g><g><path fill="#fff" fill-opacity=".1" d="M63.5 265a2.5 2.5 0 1 1-5 0 2.5 2.5 0 0 1 5 0z"/></g><g><path fill="#fff" fill-opacity=".1" d="M63.5 307a2.5 2.5 0 1 1-5 0 2.5 2.5 0 0 1 5 0z"/></g><g><path fill="#fff" fill-opacity=".1" d="M126.5 202a2.5 2.5 0 1 1-5 0 2.5 2.5 0 0 1 5 0z"/></g><g><path fill="#fff" fill-opacity=".1" d="M126.5 181a2.5 2.5 0 1 1-5 0 2.5 2.5 0 0 1 5 0z"/></g><g><path fill="#fff" fill-opacity=".1" d="M126.5 160a2.5 2.5 0 1 1-5 0 2.5 2.5 0 0 1 5 0z"/></g><g><path fill="#fff" fill-opacity=".1" d="M126.5 139a2.5 2.5 0 1 1-5 0 2.5 2.5 0 0 1 5 0z"/></g><g><path fill="#fff" fill-opacity=".1" d="M63.5 181a2.5 2.5 0 1 1-5 0 2.5 2.5 0 0 1 5 0z"/></g><g><path fill="#fff" fill-opacity=".1" d="M63.5 160a2.5 2.5 0 1 1-5 0 2.5 2.5 0 0 1 5 0z"/></g><g><path fill="#fff" fill-opacity=".1" d="M63.5 139a2.5 2.5 0 1 1-5 0 2.5 2.5 0 0 1 5 0z"/></g><g><path fill="#fff" fill-opacity=".1" d="M126.5 244a2.5 2.5 0 1 1-5 0 2.5 2.5 0 0 1 5 0z"/></g><g><path fill="#fff" fill-opacity=".1" d="M126.5 286a2.5 2.5 0 1 1-5 0 2.5 2.5 0 0 1 5 0z"/></g><g><path fill="#fff" fill-opacity=".1" d="M126.5 223a2.5 2.5 0 1 1-5 0 2.5 2.5 0 0 1 5 0z"/></g><g><path fill="#fff" fill-opacity=".1" d="M126.5 265a2.5 2.5 0 1 1-5 0 2.5 2.5 0 0 1 5 0z"/></g><g><path fill="#fff" fill-opacity=".1" d="M126.5 307a2.5 2.5 0 1 1-5 0 2.5 2.5 0 0 1 5 0z"/></g><g><path fill="#fff" fill-opacity=".1" d="M84.5 202a2.5 2.5 0 1 1-5 0 2.5 2.5 0 0 1 5 0z"/></g><g><path fill="#fff" fill-opacity=".1" d="M84.5 244a2.5 2.5 0 1 1-5 0 2.5 2.5 0 0 1 5 0z"/></g><g><path fill="#fff" fill-opacity=".1" d="M84.5 286a2.5 2.5 0 1 1-5 0 2.5 2.5 0 0 1 5 0z"/></g><g><path fill="#fff" fill-opacity=".1" d="M84.5 223a2.5 2.5 0 1 1-5 0 2.5 2.5 0 0 1 5 0z"/></g><g><path fill="#fff" fill-opacity=".1" d="M84.5 265a2.5 2.5 0 1 1-5 0 2.5 2.5 0 0 1 5 0z"/></g><g><path fill="#fff" fill-opacity=".1" d="M84.5 307a2.5 2.5 0 1 1-5 0 2.5 2.5 0 0 1 5 0z"/></g><g><path fill="#fff" fill-opacity=".1" d="M147.5 202a2.5 2.5 0 1 1-5 0 2.5 2.5 0 0 1 5 0z"/></g><g><path fill="#fff" fill-opacity=".1" d="M147.5 181a2.5 2.5 0 1 1-5 0 2.5 2.5 0 0 1 5 0z"/></g><g><path fill="#fff" fill-opacity=".1" d="M147.5 160a2.5 2.5 0 1 1-5 0 2.5 2.5 0 0 1 5 0z"/></g><g><path fill="#fff" fill-opacity=".1" d="M147.5 139a2.5 2.5 0 1 1-5 0 2.5 2.5 0 0 1 5 0z"/></g><g><path fill="#fff" fill-opacity=".1" d="M84.5 181a2.5 2.5 0 1 1-5 0 2.5 2.5 0 0 1 5 0z"/></g><g><path fill="#fff" fill-opacity=".1" d="M84.5 160a2.5 2.5 0 1 1-5 0 2.5 2.5 0 0 1 5 0z"/></g><g><path fill="#fff" fill-opacity=".1" d="M84.5 139a2.5 2.5 0 1 1-5 0 2.5 2.5 0 0 1 5 0z"/></g><g><path fill="#fff" fill-opacity=".1" d="M147.5 244a2.5 2.5 0 1 1-5 0 2.5 2.5 0 0 1 5 0z"/></g><g><path fill="#fff" fill-opacity=".1" d="M147.5 286a2.5 2.5 0 1 1-5 0 2.5 2.5 0 0 1 5 0z"/></g><g><path fill="#fff" fill-opacity=".1" d="M147.5 223a2.5 2.5 0 1 1-5 0 2.5 2.5 0 0 1 5 0z"/></g><g><path fill="#fff" fill-opacity=".1" d="M147.5 265a2.5 2.5 0 1 1-5 0 2.5 2.5 0 0 1 5 0z"/></g><g><path fill="#fff" fill-opacity=".1" d="M147.5 307a2.5 2.5 0 1 1-5 0 2.5 2.5 0 0 1 5 0z"/></g><g><path fill="#fff" fill-opacity=".1" d="M105.5 202a2.5 2.5 0 1 1-5 0 2.5 2.5 0 0 1 5 0z"/></g><g><path fill="#fff" fill-opacity=".1" d="M105.5 244a2.5 2.5 0 1 1-5 0 2.5 2.5 0 0 1 5 0z"/></g><g><path fill="#fff" fill-opacity=".1" d="M105.5 286a2.5 2.5 0 1 1-5 0 2.5 2.5 0 0 1 5 0z"/></g><g><path fill="#fff" fill-opacity=".1" d="M105.5 223a2.5 2.5 0 1 1-5 0 2.5 2.5 0 0 1 5 0z"/></g><g><path fill="#fff" fill-opacity=".1" d="M105.5 265a2.5 2.5 0 1 1-5 0 2.5 2.5 0 0 1 5 0z"/></g><g><path fill="#fff" fill-opacity=".1" d="M105.5 307a2.5 2.5 0 1 1-5 0 2.5 2.5 0 0 1 5 0z"/></g><g><path fill="#fff" fill-opacity=".1" d="M168.5 202a2.5 2.5 0 1 1-5 0 2.5 2.5 0 0 1 5 0z"/></g><g><path fill="#fff" fill-opacity=".1" d="M168.5 181a2.5 2.5 0 1 1-5 0 2.5 2.5 0 0 1 5 0z"/></g><g><path fill="#fff" fill-opacity=".1" d="M168.5 160a2.5 2.5 0 1 1-5 0 2.5 2.5 0 0 1 5 0z"/></g><g><path fill="#fff" fill-opacity=".1" d="M168.5 139a2.5 2.5 0 1 1-5 0 2.5 2.5 0 0 1 5 0z"/></g><g><path fill="#fff" fill-opacity=".1" d="M105.5 181a2.5 2.5 0 1 1-5 0 2.5 2.5 0 0 1 5 0z"/></g><g><path fill="#fff" fill-opacity=".1" d="M105.5 160a2.5 2.5 0 1 1-5 0 2.5 2.5 0 0 1 5 0z"/></g><g><path fill="#fff" fill-opacity=".1" d="M105.5 139a2.5 2.5 0 1 1-5 0 2.5 2.5 0 0 1 5 0z"/></g><g><path fill="#fff" fill-opacity=".1" d="M168.5 244a2.5 2.5 0 1 1-5 0 2.5 2.5 0 0 1 5 0z"/></g><g><path fill="#fff" fill-opacity=".1" d="M168.5 286a2.5 2.5 0 1 1-5 0 2.5 2.5 0 0 1 5 0z"/></g><g><path fill="#fff" fill-opacity=".1" d="M168.5 223a2.5 2.5 0 1 1-5 0 2.5 2.5 0 0 1 5 0z"/></g><g><path fill="#fff" fill-opacity=".1" d="M168.5 265a2.5 2.5 0 1 1-5 0 2.5 2.5 0 0 1 5 0z"/></g><g><path fill="#fff" fill-opacity=".1" d="M168.5 307a2.5 2.5 0 1 1-5 0 2.5 2.5 0 0 1 5 0z"/></g></g></g><g transform="rotate(-90 145 97)"><g><g><path fill="#fff" fill-opacity=".1" d="M95 44.5a2.5 2.5 0 1 1-5 0 2.5 2.5 0 0 1 5 0z"/></g><g><path fill="#fff" fill-opacity=".1" d="M95 86.5a2.5 2.5 0 1 1-5 0 2.5 2.5 0 0 1 5 0z"/></g><g><path fill="#fff" fill-opacity=".1" d="M95 128.5a2.5 2.5 0 1 1-5 0 2.5 2.5 0 0 1 5 0z"/></g><g><path fill="#fff" fill-opacity=".1" d="M95 65.5a2.5 2.5 0 1 1-5 0 2.5 2.5 0 0 1 5 0z"/></g><g><path fill="#fff" fill-opacity=".1" d="M95 107.5a2.5 2.5 0 1 1-5 0 2.5 2.5 0 0 1 5 0z"/></g><g><path fill="#fff" fill-opacity=".1" d="M95 149.5a2.5 2.5 0 1 1-5 0 2.5 2.5 0 0 1 5 0z"/></g><g><path fill="#fff" fill-opacity=".1" d="M158 44.5a2.5 2.5 0 1 1-5 0 2.5 2.5 0 0 1 5 0z"/></g><g><path fill="#fff" fill-opacity=".1" d="M158 86.5a2.5 2.5 0 1 1-5 0 2.5 2.5 0 0 1 5 0z"/></g><g><path fill="#fff" fill-opacity=".1" d="M158 128.5a2.5 2.5 0 1 1-5 0 2.5 2.5 0 0 1 5 0z"/></g><g><path fill="#fff" fill-opacity=".1" d="M158 65.5a2.5 2.5 0 1 1-5 0 2.5 2.5 0 0 1 5 0z"/></g><g><path fill="#fff" fill-opacity=".1" d="M158 107.5a2.5 2.5 0 1 1-5 0 2.5 2.5 0 0 1 5 0z"/></g><g><path fill="#fff" fill-opacity=".1" d="M158 149.5a2.5 2.5 0 1 1-5 0 2.5 2.5 0 0 1 5 0z"/></g><g><path fill="#fff" fill-opacity=".1" d="M116 44.5a2.5 2.5 0 1 1-5 0 2.5 2.5 0 0 1 5 0z"/></g><g><path fill="#fff" fill-opacity=".1" d="M116 86.5a2.5 2.5 0 1 1-5 0 2.5 2.5 0 0 1 5 0z"/></g><g><path fill="#fff" fill-opacity=".1" d="M116 128.5a2.5 2.5 0 1 1-5 0 2.5 2.5 0 0 1 5 0z"/></g><g><path fill="#fff" fill-opacity=".1" d="M116 65.5a2.5 2.5 0 1 1-5 0 2.5 2.5 0 0 1 5 0z"/></g><g><path fill="#fff" fill-opacity=".1" d="M116 107.5a2.5 2.5 0 1 1-5 0 2.5 2.5 0 0 1 5 0z"/></g><g><path fill="#fff" fill-opacity=".1" d="M116 149.5a2.5 2.5 0 1 1-5 0 2.5 2.5 0 0 1 5 0z"/></g><g><path fill="#fff" fill-opacity=".1" d="M179 44.5a2.5 2.5 0 1 1-5 0 2.5 2.5 0 0 1 5 0z"/></g><g><path fill="#fff" fill-opacity=".1" d="M179 86.5a2.5 2.5 0 1 1-5 0 2.5 2.5 0 0 1 5 0z"/></g><g><path fill="#fff" fill-opacity=".1" d="M179 128.5a2.5 2.5 0 1 1-5 0 2.5 2.5 0 0 1 5 0z"/></g><g><path fill="#fff" fill-opacity=".1" d="M179 65.5a2.5 2.5 0 1 1-5 0 2.5 2.5 0 0 1 5 0z"/></g><g><path fill="#fff" fill-opacity=".1" d="M179 107.5a2.5 2.5 0 1 1-5 0 2.5 2.5 0 0 1 5 0z"/></g><g><path fill="#fff" fill-opacity=".1" d="M179 149.5a2.5 2.5 0 1 1-5 0 2.5 2.5 0 0 1 5 0z"/></g><g><path fill="#fff" fill-opacity=".1" d="M137 44.5a2.5 2.5 0 1 1-5 0 2.5 2.5 0 0 1 5 0z"/></g><g><path fill="#fff" fill-opacity=".1" d="M137 86.5a2.5 2.5 0 1 1-5 0 2.5 2.5 0 0 1 5 0z"/></g><g><path fill="#fff" fill-opacity=".1" d="M137 128.5a2.5 2.5 0 1 1-5 0 2.5 2.5 0 0 1 5 0z"/></g><g><path fill="#fff" fill-opacity=".1" d="M137 65.5a2.5 2.5 0 1 1-5 0 2.5 2.5 0 0 1 5 0z"/></g><g><path fill="#fff" fill-opacity=".1" d="M137 107.5a2.5 2.5 0 1 1-5 0 2.5 2.5 0 0 1 5 0z"/></g><g><path fill="#fff" fill-opacity=".1" d="M137 149.5a2.5 2.5 0 1 1-5 0 2.5 2.5 0 0 1 5 0z"/></g><g><path fill="#fff" fill-opacity=".1" d="M200 44.5a2.5 2.5 0 1 1-5 0 2.5 2.5 0 0 1 5 0z"/></g><g><path fill="#fff" fill-opacity=".1" d="M200 86.5a2.5 2.5 0 1 1-5 0 2.5 2.5 0 0 1 5 0z"/></g><g><path fill="#fff" fill-opacity=".1" d="M200 128.5a2.5 2.5 0 1 1-5 0 2.5 2.5 0 0 1 5 0z"/></g><g><path fill="#fff" fill-opacity=".1" d="M200 65.5a2.5 2.5 0 1 1-5 0 2.5 2.5 0 0 1 5 0z"/></g><g><path fill="#fff" fill-opacity=".1" d="M200 107.5a2.5 2.5 0 1 1-5 0 2.5 2.5 0 0 1 5 0z"/></g><g><path fill="#fff" fill-opacity=".1" d="M200 149.5a2.5 2.5 0 1 1-5 0 2.5 2.5 0 0 1 5 0z"/></g></g></g><g transform="rotate(-90 250 223)"><g><g><path fill="#fff" fill-opacity=".1" d="M200 170.5a2.5 2.5 0 1 1-5 0 2.5 2.5 0 0 1 5 0z"/></g><g><path fill="#fff" fill-opacity=".1" d="M200 212.5a2.5 2.5 0 1 1-5 0 2.5 2.5 0 0 1 5 0z"/></g><g><path fill="#fff" fill-opacity=".1" d="M200 254.5a2.5 2.5 0 1 1-5 0 2.5 2.5 0 0 1 5 0z"/></g><g><path fill="#fff" fill-opacity=".1" d="M200 191.5a2.5 2.5 0 1 1-5 0 2.5 2.5 0 0 1 5 0z"/></g><g><path fill="#fff" fill-opacity=".1" d="M200 233.5a2.5 2.5 0 1 1-5 0 2.5 2.5 0 0 1 5 0z"/></g><g><path fill="#fff" fill-opacity=".1" d="M200 275.5a2.5 2.5 0 1 1-5 0 2.5 2.5 0 0 1 5 0z"/></g><g><path fill="#fff" fill-opacity=".1" d="M263 170.5a2.5 2.5 0 1 1-5 0 2.5 2.5 0 0 1 5 0z"/></g><g><path fill="#fff" fill-opacity=".1" d="M263 212.5a2.5 2.5 0 1 1-5 0 2.5 2.5 0 0 1 5 0z"/></g><g><path fill="#fff" fill-opacity=".1" d="M263 254.5a2.5 2.5 0 1 1-5 0 2.5 2.5 0 0 1 5 0z"/></g><g><path fill="#fff" fill-opacity=".1" d="M263 191.5a2.5 2.5 0 1 1-5 0 2.5 2.5 0 0 1 5 0z"/></g><g><path fill="#fff" fill-opacity=".1" d="M263 233.5a2.5 2.5 0 1 1-5 0 2.5 2.5 0 0 1 5 0z"/></g><g><path fill="#fff" fill-opacity=".1" d="M263 275.5a2.5 2.5 0 1 1-5 0 2.5 2.5 0 0 1 5 0z"/></g><g><path fill="#fff" fill-opacity=".1" d="M221 170.5a2.5 2.5 0 1 1-5 0 2.5 2.5 0 0 1 5 0z"/></g><g><path fill="#fff" fill-opacity=".1" d="M221 212.5a2.5 2.5 0 1 1-5 0 2.5 2.5 0 0 1 5 0z"/></g><g><path fill="#fff" fill-opacity=".1" d="M221 254.5a2.5 2.5 0 1 1-5 0 2.5 2.5 0 0 1 5 0z"/></g><g><path fill="#fff" fill-opacity=".1" d="M221 191.5a2.5 2.5 0 1 1-5 0 2.5 2.5 0 0 1 5 0z"/></g><g><path fill="#fff" fill-opacity=".1" d="M221 233.5a2.5 2.5 0 1 1-5 0 2.5 2.5 0 0 1 5 0z"/></g><g><path fill="#fff" fill-opacity=".1" d="M221 275.5a2.5 2.5 0 1 1-5 0 2.5 2.5 0 0 1 5 0z"/></g><g><path fill="#fff" fill-opacity=".1" d="M284 170.5a2.5 2.5 0 1 1-5 0 2.5 2.5 0 0 1 5 0z"/></g><g><path fill="#fff" fill-opacity=".1" d="M284 212.5a2.5 2.5 0 1 1-5 0 2.5 2.5 0 0 1 5 0z"/></g><g><path fill="#fff" fill-opacity=".1" d="M284 254.5a2.5 2.5 0 1 1-5 0 2.5 2.5 0 0 1 5 0z"/></g><g><path fill="#fff" fill-opacity=".1" d="M284 191.5a2.5 2.5 0 1 1-5 0 2.5 2.5 0 0 1 5 0z"/></g><g><path fill="#fff" fill-opacity=".1" d="M284 233.5a2.5 2.5 0 1 1-5 0 2.5 2.5 0 0 1 5 0z"/></g><g><path fill="#fff" fill-opacity=".1" d="M284 275.5a2.5 2.5 0 1 1-5 0 2.5 2.5 0 0 1 5 0z"/></g><g><path fill="#fff" fill-opacity=".1" d="M242 170.5a2.5 2.5 0 1 1-5 0 2.5 2.5 0 0 1 5 0z"/></g><g><path fill="#fff" fill-opacity=".1" d="M242 212.5a2.5 2.5 0 1 1-5 0 2.5 2.5 0 0 1 5 0z"/></g><g><path fill="#fff" fill-opacity=".1" d="M242 254.5a2.5 2.5 0 1 1-5 0 2.5 2.5 0 0 1 5 0z"/></g><g><path fill="#fff" fill-opacity=".1" d="M242 191.5a2.5 2.5 0 1 1-5 0 2.5 2.5 0 0 1 5 0z"/></g><g><path fill="#fff" fill-opacity=".1" d="M242 233.5a2.5 2.5 0 1 1-5 0 2.5 2.5 0 0 1 5 0z"/></g><g><path fill="#fff" fill-opacity=".1" d="M242 275.5a2.5 2.5 0 1 1-5 0 2.5 2.5 0 0 1 5 0z"/></g><g><path fill="#fff" fill-opacity=".1" d="M305 170.5a2.5 2.5 0 1 1-5 0 2.5 2.5 0 0 1 5 0z"/></g><g><path fill="#fff" fill-opacity=".1" d="M305 212.5a2.5 2.5 0 1 1-5 0 2.5 2.5 0 0 1 5 0z"/></g><g><path fill="#fff" fill-opacity=".1" d="M305 254.5a2.5 2.5 0 1 1-5 0 2.5 2.5 0 0 1 5 0z"/></g><g><path fill="#fff" fill-opacity=".1" d="M305 191.5a2.5 2.5 0 1 1-5 0 2.5 2.5 0 0 1 5 0z"/></g><g><path fill="#fff" fill-opacity=".1" d="M305 233.5a2.5 2.5 0 1 1-5 0 2.5 2.5 0 0 1 5 0z"/></g><g><path fill="#fff" fill-opacity=".1" d="M305 275.5a2.5 2.5 0 1 1-5 0 2.5 2.5 0 0 1 5 0z"/></g></g></g><g transform="rotate(-90 103 349)"><g><g><path fill="#fff" fill-opacity=".1" d="M53 296.5a2.5 2.5 0 1 1-5 0 2.5 2.5 0 0 1 5 0z"/></g><g><path fill="#fff" fill-opacity=".1" d="M53 338.5a2.5 2.5 0 1 1-5 0 2.5 2.5 0 0 1 5 0z"/></g><g><path fill="#fff" fill-opacity=".1" d="M53 380.5a2.5 2.5 0 1 1-5 0 2.5 2.5 0 0 1 5 0z"/></g><g><path fill="#fff" fill-opacity=".1" d="M53 317.5a2.5 2.5 0 1 1-5 0 2.5 2.5 0 0 1 5 0z"/></g><g><path fill="#fff" fill-opacity=".1" d="M53 359.5a2.5 2.5 0 1 1-5 0 2.5 2.5 0 0 1 5 0z"/></g><g><path fill="#fff" fill-opacity=".1" d="M53 401.5a2.5 2.5 0 1 1-5 0 2.5 2.5 0 0 1 5 0z"/></g><g><path fill="#fff" fill-opacity=".1" d="M116 296.5a2.5 2.5 0 1 1-5 0 2.5 2.5 0 0 1 5 0z"/></g><g><path fill="#fff" fill-opacity=".1" d="M116 338.5a2.5 2.5 0 1 1-5 0 2.5 2.5 0 0 1 5 0z"/></g><g><path fill="#fff" fill-opacity=".1" d="M116 380.5a2.5 2.5 0 1 1-5 0 2.5 2.5 0 0 1 5 0z"/></g><g><path fill="#fff" fill-opacity=".1" d="M116 317.5a2.5 2.5 0 1 1-5 0 2.5 2.5 0 0 1 5 0z"/></g><g><path fill="#fff" fill-opacity=".1" d="M116 359.5a2.5 2.5 0 1 1-5 0 2.5 2.5 0 0 1 5 0z"/></g><g><path fill="#fff" fill-opacity=".1" d="M116 401.5a2.5 2.5 0 1 1-5 0 2.5 2.5 0 0 1 5 0z"/></g><g><path fill="#fff" fill-opacity=".1" d="M74 296.5a2.5 2.5 0 1 1-5 0 2.5 2.5 0 0 1 5 0z"/></g><g><path fill="#fff" fill-opacity=".1" d="M74 338.5a2.5 2.5 0 1 1-5 0 2.5 2.5 0 0 1 5 0z"/></g><g><path fill="#fff" fill-opacity=".1" d="M74 380.5a2.5 2.5 0 1 1-5 0 2.5 2.5 0 0 1 5 0z"/></g><g><path fill="#fff" fill-opacity=".1" d="M74 317.5a2.5 2.5 0 1 1-5 0 2.5 2.5 0 0 1 5 0z"/></g><g><path fill="#fff" fill-opacity=".1" d="M74 359.5a2.5 2.5 0 1 1-5 0 2.5 2.5 0 0 1 5 0z"/></g><g><path fill="#fff" fill-opacity=".1" d="M74 401.5a2.5 2.5 0 1 1-5 0 2.5 2.5 0 0 1 5 0z"/></g><g><path fill="#fff" fill-opacity=".1" d="M137 296.5a2.5 2.5 0 1 1-5 0 2.5 2.5 0 0 1 5 0z"/></g><g><path fill="#fff" fill-opacity=".1" d="M137 338.5a2.5 2.5 0 1 1-5 0 2.5 2.5 0 0 1 5 0z"/></g><g><path fill="#fff" fill-opacity=".1" d="M137 380.5a2.5 2.5 0 1 1-5 0 2.5 2.5 0 0 1 5 0z"/></g><g><path fill="#fff" fill-opacity=".1" d="M137 317.5a2.5 2.5 0 1 1-5 0 2.5 2.5 0 0 1 5 0z"/></g><g><path fill="#fff" fill-opacity=".1" d="M137 359.5a2.5 2.5 0 1 1-5 0 2.5 2.5 0 0 1 5 0z"/></g><g><path fill="#fff" fill-opacity=".1" d="M137 401.5a2.5 2.5 0 1 1-5 0 2.5 2.5 0 0 1 5 0z"/></g><g><path fill="#fff" fill-opacity=".1" d="M95 296.5a2.5 2.5 0 1 1-5 0 2.5 2.5 0 0 1 5 0z"/></g><g><path fill="#fff" fill-opacity=".1" d="M95 338.5a2.5 2.5 0 1 1-5 0 2.5 2.5 0 0 1 5 0z"/></g><g><path fill="#fff" fill-opacity=".1" d="M95 380.5a2.5 2.5 0 1 1-5 0 2.5 2.5 0 0 1 5 0z"/></g><g><path fill="#fff" fill-opacity=".1" d="M95 317.5a2.5 2.5 0 1 1-5 0 2.5 2.5 0 0 1 5 0z"/></g><g><path fill="#fff" fill-opacity=".1" d="M95 359.5a2.5 2.5 0 1 1-5 0 2.5 2.5 0 0 1 5 0z"/></g><g><path fill="#fff" fill-opacity=".1" d="M95 401.5a2.5 2.5 0 1 1-5 0 2.5 2.5 0 0 1 5 0z"/></g><g><path fill="#fff" fill-opacity=".1" d="M158 296.5a2.5 2.5 0 1 1-5 0 2.5 2.5 0 0 1 5 0z"/></g><g><path fill="#fff" fill-opacity=".1" d="M158 338.5a2.5 2.5 0 1 1-5 0 2.5 2.5 0 0 1 5 0z"/></g><g><path fill="#fff" fill-opacity=".1" d="M158 380.5a2.5 2.5 0 1 1-5 0 2.5 2.5 0 0 1 5 0z"/></g><g><path fill="#fff" fill-opacity=".1" d="M158 317.5a2.5 2.5 0 1 1-5 0 2.5 2.5 0 0 1 5 0z"/></g><g><path fill="#fff" fill-opacity=".1" d="M158 359.5a2.5 2.5 0 1 1-5 0 2.5 2.5 0 0 1 5 0z"/></g><g><path fill="#fff" fill-opacity=".1" d="M158 401.5a2.5 2.5 0 1 1-5 0 2.5 2.5 0 0 1 5 0z"/></g></g></g><g transform="rotate(-90 229 349)"><g><g><path fill="#fff" fill-opacity=".1" d="M179 296.5a2.5 2.5 0 1 1-5 0 2.5 2.5 0 0 1 5 0z"/></g><g><path fill="#fff" fill-opacity=".1" d="M179 338.5a2.5 2.5 0 1 1-5 0 2.5 2.5 0 0 1 5 0z"/></g><g><path fill="#fff" fill-opacity=".1" d="M179 380.5a2.5 2.5 0 1 1-5 0 2.5 2.5 0 0 1 5 0z"/></g><g><path fill="#fff" fill-opacity=".1" d="M179 317.5a2.5 2.5 0 1 1-5 0 2.5 2.5 0 0 1 5 0z"/></g><g><path fill="#fff" fill-opacity=".1" d="M179 359.5a2.5 2.5 0 1 1-5 0 2.5 2.5 0 0 1 5 0z"/></g><g><path fill="#fff" fill-opacity=".1" d="M179 401.5a2.5 2.5 0 1 1-5 0 2.5 2.5 0 0 1 5 0z"/></g><g><path fill="#fff" fill-opacity=".1" d="M242 296.5a2.5 2.5 0 1 1-5 0 2.5 2.5 0 0 1 5 0z"/></g><g><path fill="#fff" fill-opacity=".1" d="M242 338.5a2.5 2.5 0 1 1-5 0 2.5 2.5 0 0 1 5 0z"/></g><g><path fill="#fff" fill-opacity=".1" d="M242 380.5a2.5 2.5 0 1 1-5 0 2.5 2.5 0 0 1 5 0z"/></g><g><path fill="#fff" fill-opacity=".1" d="M242 317.5a2.5 2.5 0 1 1-5 0 2.5 2.5 0 0 1 5 0z"/></g><g><path fill="#fff" fill-opacity=".1" d="M242 359.5a2.5 2.5 0 1 1-5 0 2.5 2.5 0 0 1 5 0z"/></g><g><path fill="#fff" fill-opacity=".1" d="M242 401.5a2.5 2.5 0 1 1-5 0 2.5 2.5 0 0 1 5 0z"/></g><g><path fill="#fff" fill-opacity=".1" d="M200 296.5a2.5 2.5 0 1 1-5 0 2.5 2.5 0 0 1 5 0z"/></g><g><path fill="#fff" fill-opacity=".1" d="M200 338.5a2.5 2.5 0 1 1-5 0 2.5 2.5 0 0 1 5 0z"/></g><g><path fill="#fff" fill-opacity=".1" d="M200 380.5a2.5 2.5 0 1 1-5 0 2.5 2.5 0 0 1 5 0z"/></g><g><path fill="#fff" fill-opacity=".1" d="M200 317.5a2.5 2.5 0 1 1-5 0 2.5 2.5 0 0 1 5 0z"/></g><g><path fill="#fff" fill-opacity=".1" d="M200 359.5a2.5 2.5 0 1 1-5 0 2.5 2.5 0 0 1 5 0z"/></g><g><path fill="#fff" fill-opacity=".1" d="M200 401.5a2.5 2.5 0 1 1-5 0 2.5 2.5 0 0 1 5 0z"/></g><g><path fill="#fff" fill-opacity=".1" d="M263 296.5a2.5 2.5 0 1 1-5 0 2.5 2.5 0 0 1 5 0z"/></g><g><path fill="#fff" fill-opacity=".1" d="M263 338.5a2.5 2.5 0 1 1-5 0 2.5 2.5 0 0 1 5 0z"/></g><g><path fill="#fff" fill-opacity=".1" d="M263 380.5a2.5 2.5 0 1 1-5 0 2.5 2.5 0 0 1 5 0z"/></g><g><path fill="#fff" fill-opacity=".1" d="M263 317.5a2.5 2.5 0 1 1-5 0 2.5 2.5 0 0 1 5 0z"/></g><g><path fill="#fff" fill-opacity=".1" d="M263 359.5a2.5 2.5 0 1 1-5 0 2.5 2.5 0 0 1 5 0z"/></g><g><path fill="#fff" fill-opacity=".1" d="M263 401.5a2.5 2.5 0 1 1-5 0 2.5 2.5 0 0 1 5 0z"/></g><g><path fill="#fff" fill-opacity=".1" d="M221 296.5a2.5 2.5 0 1 1-5 0 2.5 2.5 0 0 1 5 0z"/></g><g><path fill="#fff" fill-opacity=".1" d="M221 338.5a2.5 2.5 0 1 1-5 0 2.5 2.5 0 0 1 5 0z"/></g><g><path fill="#fff" fill-opacity=".1" d="M221 380.5a2.5 2.5 0 1 1-5 0 2.5 2.5 0 0 1 5 0z"/></g><g><path fill="#fff" fill-opacity=".1" d="M221 317.5a2.5 2.5 0 1 1-5 0 2.5 2.5 0 0 1 5 0z"/></g><g><path fill="#fff" fill-opacity=".1" d="M221 359.5a2.5 2.5 0 1 1-5 0 2.5 2.5 0 0 1 5 0z"/></g><g><path fill="#fff" fill-opacity=".1" d="M221 401.5a2.5 2.5 0 1 1-5 0 2.5 2.5 0 0 1 5 0z"/></g><g><path fill="#fff" fill-opacity=".1" d="M284 296.5a2.5 2.5 0 1 1-5 0 2.5 2.5 0 0 1 5 0z"/></g><g><path fill="#fff" fill-opacity=".1" d="M284 338.5a2.5 2.5 0 1 1-5 0 2.5 2.5 0 0 1 5 0z"/></g><g><path fill="#fff" fill-opacity=".1" d="M284 380.5a2.5 2.5 0 1 1-5 0 2.5 2.5 0 0 1 5 0z"/></g><g><path fill="#fff" fill-opacity=".1" d="M284 317.5a2.5 2.5 0 1 1-5 0 2.5 2.5 0 0 1 5 0z"/></g><g><path fill="#fff" fill-opacity=".1" d="M284 359.5a2.5 2.5 0 1 1-5 0 2.5 2.5 0 0 1 5 0z"/></g><g><path fill="#fff" fill-opacity=".1" d="M284 401.5a2.5 2.5 0 1 1-5 0 2.5 2.5 0 0 1 5 0z"/></g></g></g><g transform="rotate(-90 355 349)"><g><g><path fill="#fff" fill-opacity=".1" d="M305 296.5a2.5 2.5 0 1 1-5 0 2.5 2.5 0 0 1 5 0z"/></g><g><path fill="#fff" fill-opacity=".1" d="M305 338.5a2.5 2.5 0 1 1-5 0 2.5 2.5 0 0 1 5 0z"/></g><g><path fill="#fff" fill-opacity=".1" d="M305 380.5a2.5 2.5 0 1 1-5 0 2.5 2.5 0 0 1 5 0z"/></g><g><path fill="#fff" fill-opacity=".1" d="M305 317.5a2.5 2.5 0 1 1-5 0 2.5 2.5 0 0 1 5 0z"/></g><g><path fill="#fff" fill-opacity=".1" d="M305 359.5a2.5 2.5 0 1 1-5 0 2.5 2.5 0 0 1 5 0z"/></g><g><path fill="#fff" fill-opacity=".1" d="M305 401.5a2.5 2.5 0 1 1-5 0 2.5 2.5 0 0 1 5 0z"/></g><g><path fill="#fff" fill-opacity=".1" d="M368 296.5a2.5 2.5 0 1 1-5 0 2.5 2.5 0 0 1 5 0z"/></g><g><path fill="#fff" fill-opacity=".1" d="M368 338.5a2.5 2.5 0 1 1-5 0 2.5 2.5 0 0 1 5 0z"/></g><g><path fill="#fff" fill-opacity=".1" d="M368 380.5a2.5 2.5 0 1 1-5 0 2.5 2.5 0 0 1 5 0z"/></g><g><path fill="#fff" fill-opacity=".1" d="M368 317.5a2.5 2.5 0 1 1-5 0 2.5 2.5 0 0 1 5 0z"/></g><g><path fill="#fff" fill-opacity=".1" d="M368 359.5a2.5 2.5 0 1 1-5 0 2.5 2.5 0 0 1 5 0z"/></g><g><path fill="#fff" fill-opacity=".1" d="M368 401.5a2.5 2.5 0 1 1-5 0 2.5 2.5 0 0 1 5 0z"/></g><g><path fill="#fff" fill-opacity=".1" d="M326 296.5a2.5 2.5 0 1 1-5 0 2.5 2.5 0 0 1 5 0z"/></g><g><path fill="#fff" fill-opacity=".1" d="M326 338.5a2.5 2.5 0 1 1-5 0 2.5 2.5 0 0 1 5 0z"/></g><g><path fill="#fff" fill-opacity=".1" d="M326 380.5a2.5 2.5 0 1 1-5 0 2.5 2.5 0 0 1 5 0z"/></g><g><path fill="#fff" fill-opacity=".1" d="M326 317.5a2.5 2.5 0 1 1-5 0 2.5 2.5 0 0 1 5 0z"/></g><g><path fill="#fff" fill-opacity=".1" d="M326 359.5a2.5 2.5 0 1 1-5 0 2.5 2.5 0 0 1 5 0z"/></g><g><path fill="#fff" fill-opacity=".1" d="M326 401.5a2.5 2.5 0 1 1-5 0 2.5 2.5 0 0 1 5 0z"/></g><g><path fill="#fff" fill-opacity=".1" d="M389 296.5a2.5 2.5 0 1 1-5 0 2.5 2.5 0 0 1 5 0z"/></g><g><path fill="#fff" fill-opacity=".1" d="M389 338.5a2.5 2.5 0 1 1-5 0 2.5 2.5 0 0 1 5 0z"/></g><g><path fill="#fff" fill-opacity=".1" d="M389 380.5a2.5 2.5 0 1 1-5 0 2.5 2.5 0 0 1 5 0z"/></g><g><path fill="#fff" fill-opacity=".1" d="M389 317.5a2.5 2.5 0 1 1-5 0 2.5 2.5 0 0 1 5 0z"/></g><g><path fill="#fff" fill-opacity=".1" d="M389 359.5a2.5 2.5 0 1 1-5 0 2.5 2.5 0 0 1 5 0z"/></g><g><path fill="#fff" fill-opacity=".1" d="M389 401.5a2.5 2.5 0 1 1-5 0 2.5 2.5 0 0 1 5 0z"/></g><g><path fill="#fff" fill-opacity=".1" d="M347 296.5a2.5 2.5 0 1 1-5 0 2.5 2.5 0 0 1 5 0z"/></g><g><path fill="#fff" fill-opacity=".1" d="M347 338.5a2.5 2.5 0 1 1-5 0 2.5 2.5 0 0 1 5 0z"/></g><g><path fill="#fff" fill-opacity=".1" d="M347 380.5a2.5 2.5 0 1 1-5 0 2.5 2.5 0 0 1 5 0z"/></g><g><path fill="#fff" fill-opacity=".1" d="M347 317.5a2.5 2.5 0 1 1-5 0 2.5 2.5 0 0 1 5 0z"/></g><g><path fill="#fff" fill-opacity=".1" d="M347 359.5a2.5 2.5 0 1 1-5 0 2.5 2.5 0 0 1 5 0z"/></g><g><path fill="#fff" fill-opacity=".1" d="M347 401.5a2.5 2.5 0 1 1-5 0 2.5 2.5 0 0 1 5 0z"/></g><g><path fill="#fff" fill-opacity=".1" d="M410 296.5a2.5 2.5 0 1 1-5 0 2.5 2.5 0 0 1 5 0z"/></g><g><path fill="#fff" fill-opacity=".1" d="M410 338.5a2.5 2.5 0 1 1-5 0 2.5 2.5 0 0 1 5 0z"/></g><g><path fill="#fff" fill-opacity=".1" d="M410 380.5a2.5 2.5 0 1 1-5 0 2.5 2.5 0 0 1 5 0z"/></g><g><path fill="#fff" fill-opacity=".1" d="M410 317.5a2.5 2.5 0 1 1-5 0 2.5 2.5 0 0 1 5 0z"/></g><g><path fill="#fff" fill-opacity=".1" d="M410 359.5a2.5 2.5 0 1 1-5 0 2.5 2.5 0 0 1 5 0z"/></g><g><path fill="#fff" fill-opacity=".1" d="M410 401.5a2.5 2.5 0 1 1-5 0 2.5 2.5 0 0 1 5 0z"/></g></g></g></g></g><g><g><g filter="url(#ze74a)"><path fill="none" d="M111.8 95h140.731v69.95H111.8z" mask="url(&quot;#ze74b&quot;)"/><path fill-opacity=".2" d="M111.8 95h140.731v69.95H111.8z"/></g><path fill="#18222e" d="M111.8 95h140.731v69.95H111.8z"/></g><g><path fill="#fff" d="M153.873 134.74c0 4.378-3.473 6.897-8.525 6.897-2.089 0-4.372-.416-6.63-1.394v-5.821c2.04 1.125 4.614 1.956 6.63 1.956 1.36 0 2.331-.367 2.331-1.492 0-2.91-9.229-1.834-9.229-8.585 0-4.33 3.279-6.922 8.21-6.922 2.015 0 4.007.318 6.023 1.125v5.748c-1.846-1.003-4.178-1.565-6.024-1.565-1.287 0-2.064.367-2.064 1.32 0 2.74 9.254 1.444 9.278 8.733zm7.116-14.945h4.615v5.21h-4.615v8.683c0 3.62 3.838 2.495 4.615 2.177v4.965c-.802.44-2.259.807-4.25.807-3.595 0-6.291-2.666-6.291-6.286l.024-19.592 5.926-1.272zm12.168 1.81c1.433-2.642 4.275-2.104 5.052-1.81v5.626c-.753-.27-3.182-.612-4.614 1.271v14.505h-6.072v-21.402h5.246zm6.534-1.81h6.096v21.402h-6.096zm0-6.849l6.096-1.296v4.965l-6.096 1.321zm27.056 17.39c0 7.755-3.958 11.277-8.306 11.277-2.137 0-3.424-.905-4.299-1.541l-.024 6.922-6.072 1.296v-28.52h5.343l.316 1.517c.85-.783 2.38-1.908 4.76-1.908 4.25 0 8.258 3.865 8.282 10.958zm-5.999.172c0-3.204-1.53-5.699-3.74-5.699-1.384 0-2.259.49-2.89 1.199l.024 9.074c.583.636 1.433 1.15 2.866 1.15 2.235 0 3.74-2.446 3.74-5.724zm25.09 2.25H213.96c.267 2.887 2.356 3.718 4.712 3.718 2.404 0 4.299-.513 5.95-1.345v4.892c-1.651.93-3.837 1.59-6.727 1.59-5.927 0-10.056-3.718-10.056-11.08 0-6.213 3.498-11.154 9.278-11.154 5.757 0 8.768 4.94 8.768 11.202 0 .587-.048 1.86-.048 2.177zm-5.684-4.5c0-2.764-1.578-3.914-3.06-3.914-1.53 0-3.206 1.15-3.206 3.914z"/></g></g><g><g><path fill="#18222e" d="M0 197h165.713v69.95H0z"/></g><g><g><path fill="#fff" d="M41.145 216.99c3.7 0 7.114 2.007 6.647 7.01-.566 5.946-3.751 9.236-8.776 9.25h-4.391c-.632 0-.937.516-1.102 1.572l-.849 5.4c-.127.815-.546 1.217-1.164 1.217h-4.085c-.651 0-.878-.416-.733-1.348l3.372-21.64c.167-1.065.566-1.461 1.293-1.461zm-6.653 11.586h3.326c2.081-.08 3.463-1.52 3.601-4.12.085-1.605-1-2.755-2.723-2.746l-3.131.014zM58.91 239.79c-1.455 1.33-2.746 2.18-5.634 2.18-3.98 0-6.998-3.31-6.687-7.523.405-5.447 4.179-9.697 9.776-9.813 2.41-.057 4.136.662 4.813 2.265.192.453.399.373.475-.077l.148-.863c.093-.55.269-.75.628-.75h3.992c.535 0 .708.345.595 1.05l-2.237 14.038c-.15.945-.447 1.192-1.059 1.192h-3.63c-.486 0-.693-.278-.625-.802l.133-1.002c.054-.419-.326-.243-.7.096zm1.96-6.447c.347-2.356-1.331-4.278-3.74-4.278-2.41 0-4.664 1.922-5.012 4.278-.348 2.355 1.33 4.278 3.74 4.278 2.412 0 4.663-1.923 5.011-4.278zm13.252-8.18c.705 0 1.087.283 1.24.799l2.619 8.513 5.86-8.494c.385-.557.654-.824 1.325-.824h3.915c.711 0 .915.652.482 1.272l-14.054 20.159a1.266 1.266 0 0 1-1.229.603h-4.136c-.53 0-.821-.484-.445-1.017l4.482-6.367-4.57-13.381c-.24-.697.069-1.263.827-1.263z"/></g><g><path fill="#fff" d="M103.43 216.996c3.68 0 7.076 1.991 6.611 6.954-.563 5.899-3.73 9.163-8.727 9.177H96.95c-.628 0-.932.511-1.095 1.559l-.845 5.356c-.126.809-.543 1.208-1.157 1.208h-4.062c-.648 0-.873-.413-.73-1.337l3.36-21.474c.165-1.056.562-1.449 1.286-1.449h9.724zm-3.307 11.493c2.07-.078 3.443-1.508 3.58-4.086.085-1.593-.993-2.733-2.707-2.725l-3.114.014-1.067 6.797zm20.98 11.126c-1.448 1.32-2.731 2.163-5.603 2.163-3.958 0-6.96-3.284-6.65-7.463.403-5.404 4.156-9.62 9.722-9.736 2.395-.056 4.113.658 4.786 2.248.191.449.397.37.473-.076l.146-.857c.093-.545.267-.744.625-.744h3.964c.532 0 .704.342.591 1.042l-2.224 13.926c-.15.938-.445 1.183-1.053 1.183h-3.61c-.483 0-.689-.276-.621-.795l.132-.995c.053-.415-.324-.241-.695.096zm1.945-6.396c.346-2.336-1.323-4.244-3.72-4.244-2.395 0-4.636 1.908-4.982 4.244-.347 2.337 1.323 4.245 3.719 4.245s4.637-1.908 4.983-4.245zm11.664 8.104h-4.167a.492.492 0 0 1-.51-.562l3.66-23.133a.716.716 0 0 1 .693-.562h4.167a.494.494 0 0 1 .51.562l-3.66 23.133a.716.716 0 0 1-.693.568z"/></g></g></g><g><g><path fill="#18222e" d="M124.29 301.52h175.705v69.95H124.29z"/></g><g><g><g><path fill="#fff" d="M161.44 334.464c-1.467-.813-2.226-1.494-2.226-2.432 0-1.195 1.05-1.946 2.683-1.946a9.499 9.499 0 0 1 3.606.794l1.342-4.18s-1.235-.98-4.872-.98c-5.062 0-8.569 2.942-8.569 7.079 0 2.335 1.637 4.137 3.833 5.417 1.766 1.023 2.395 1.751 2.395 2.818 0 1.066-.882 2.004-2.522 2.004a11.166 11.166 0 0 1-4.74-1.28l-1.43 4.179s2.13 1.452 5.714 1.452c5.208 0 8.945-2.604 8.945-7.293 0-2.518-1.89-4.312-4.158-5.632z"/></g><g><path fill="#fff" d="M182.198 325.684c-2.564 0-4.6 1.238-6.132 3.114l-.084-.043 2.226-11.815h-5.802l-5.626 30.07h5.798l1.917-10.277c.766-3.892 2.732-6.274 4.58-6.274 1.302 0 1.804.896 1.804 2.176a13.892 13.892 0 0 1-.249 2.603l-2.169 11.773h5.795l2.269-12.158c.251-1.264.392-2.548.421-3.837 0-3.327-1.724-5.332-4.748-5.332z"/></g><g><path fill="#fff" d="M207.9 333.91c0 7.298-4.619 13.524-11.467 13.524-5.208 0-7.983-3.67-7.983-8.234 0-7.122 4.622-13.52 11.597-13.52 5.419 0 7.852 4.008 7.852 8.23zm-5.922-.17c0-1.748-.67-3.538-2.732-3.538-3.15 0-4.871 5.503-4.871 8.873 0 2.133.84 3.837 2.813 3.837 3.07 0 4.79-5.545 4.79-9.172z"/></g><g><path fill="#fff" d="M228.688 333.199c0 7.164-4.453 14.247-11.256 14.247-2.215 0-3.403-.779-3.403-.779h-.126l-1.598 8.702h-5.795l4.04-21.536c.463-2.432.923-5.674 1.176-7.807h5.128l-.334 3.156h.08s2.22-3.502 6.133-3.502c4.242 0 5.963 3.538 5.955 7.519zm-6.032.583c0-1.576-.537-3.241-2.3-3.241-2.034 0-3.924 2.432-4.598 6.102l-.966 5.503a3.648 3.648 0 0 0 2.395.852c3.235 0 5.461-5.417 5.469-9.216z"/></g><g><path fill="#fff" d="M236.98 317.234a3.268 3.268 0 0 0-1.282.258 3.309 3.309 0 0 0-1.083.742 3.368 3.368 0 0 0-.716 1.109 3.408 3.408 0 0 0-.239 1.304c0 1.751 1.093 2.946 2.73 2.946h.083c.449.018.896-.057 1.314-.222a3.268 3.268 0 0 0 1.118-.734c.319-.32.57-.704.737-1.126a3.37 3.37 0 0 0 .235-1.331 2.837 2.837 0 0 0-.178-1.151c-.138-.367-.35-.7-.624-.978a2.752 2.752 0 0 0-.962-.635 2.718 2.718 0 0 0-1.134-.182z"/></g><g><path fill="#fff" d="M228.87 347.01h5.798l3.948-20.86h-5.837z"/></g><g><path fill="#fff" d="M253.355 326.11h-4.036l.211-.98c.337-2.004 1.514-3.794 3.45-3.794.626.001 1.25.1 1.847.295l1.15-4.603s-1.028-.514-3.17-.514a8.524 8.524 0 0 0-5.676 1.946c-1.974 1.708-2.897 4.18-3.361 6.654l-.165.981h-2.682l-.84 4.437h2.683l-3.066 16.465h5.798l3.066-16.465h3.99z"/></g><g><path fill="#fff" d="M267.304 326.15s-3.626 9.274-5.25 14.333h-.085c-.111-1.627-1.43-14.333-1.43-14.333h-6.09l3.484 19.159a1.268 1.268 0 0 1-.126.98 9.989 9.989 0 0 1-3.15 3.542 12.484 12.484 0 0 1-3.277 1.661l1.598 4.993a13.197 13.197 0 0 0 5.672-3.199c2.664-2.53 5.082-6.42 7.604-11.694l7.097-15.442z"/></g></g></g></g><g><g><path fill="#18222e" d="M207 197h219v70H207z"/></g><g><g><g><path fill="#fff" d="M330.983 233.02a16.476 16.476 0 0 1-.264 9.486c-1.65 4.872-6.389 5.933-9.983 4.63-.948-.343-1.757-1.07-2.588-1.669v1.748h-6.168v-29.457l6.168-.758v12.715c1.718-2.062 3.733-2.777 6.06-2.528 3.566.387 5.88 2.326 6.775 5.832zm-5.872 1.79c-.278-1.91-1.683-2.842-3.54-2.78a3.138 3.138 0 0 0-1.656.426c-.503.293-.917.72-1.197 1.235-.666 1.365-.57 4.254-.456 5.634a4.29 4.29 0 0 0 .65 1.822 4.224 4.224 0 0 0 1.382 1.341c.394.155.809.249 1.23.278 1.826.141 3.337-.877 3.608-2.82a18.222 18.222 0 0 0-.021-5.135z"/></g><g><path fill="#fff" d="M352.268 234.149a15.054 15.054 0 0 1 0 6.601c-.906 4.009-4.007 6.62-8.097 6.833h-.139a12.32 12.32 0 0 1-2.585-.044 7.3 7.3 0 0 1-.666-.083h-.154a6.314 6.314 0 0 1-.456-.083h-.032l-.171-.036c-3.961-.939-6.493-3.914-6.742-8.096a21.21 21.21 0 0 1 .356-5.504c.692-3.264 2.831-5.32 6.04-6.182 2.112-.58 4.338-.58 6.45 0 3.394.92 5.461 3.142 6.196 6.594zm-6 .527a3.357 3.357 0 0 0-1.188-1.923 3.281 3.281 0 0 0-2.125-.717c-2.046-.04-3.415 1.17-3.593 3.384a24.32 24.32 0 0 0 .028 4.229c.168 1.917 1.48 3.04 3.376 3.127 1.762.083 3.084-.914 3.494-2.755.029-.13.05-.257.072-.387.039-.375.335-3.311-.064-4.958z"/></g><g><path fill="#fff" d="M253.468 227.455h-4.403v-2.969c.324-2.788 4.91-2.271 4.91-2.271v-4.818c-.176-.032-9.114-2.199-10.89 4.702v.044c-.277.863-.26 4.806-.256 5.305H239v5.272h4.054v14.358h5.9v-14.35h4.514l.506-5.273z"/></g><g><path fill="#fff" d="M267.54 227.473h5.758v19.76h-5.775v-2.527c-.053.11-.116.213-.19.31-.951 1.214-1.978 2.084-3.358 2.377-4.5.95-8.72-.976-9.726-6.725a17.147 17.147 0 0 1 .357-7.973c1.29-4.269 5.365-6.486 9.555-5.24 1.087.325 1.611.668 3.002 2.112l.146.152.025.029c.064.065.135.144.207.228zm-.502 7.396c-.203-1.78-1.48-2.799-3.209-2.839-1.73-.04-2.91.773-3.37 2.413-.045.252-.58 3.141-.124 5.586.382 1.716 1.594 2.676 3.32 2.745 1.725.068 3.187-1.03 3.38-2.857a24.14 24.14 0 0 0 .003-5.048z"/></g><g><path fill="#fff" d="M290.886 245.818c-.267-.99-.57-1.964-.866-2.91l-.278-1.048s-7.216 3.51-8.34-3.156c-.1-1.107-.074-2.221.075-3.322.282-2.051 1.516-3.15 3.48-3.337a7.506 7.506 0 0 1 2.01.083c.896.152 1.784.423 2.746.668.357-1.054.688-2.098 1.013-3.145.05-.166.092-.307.128-.434l.16-.632a.738.738 0 0 0-.267-.256 3.22 3.22 0 0 0-.891-.419 11.54 11.54 0 0 0-.532-.18l-.263-.08a14.948 14.948 0 0 0-5.819-.383c-4.168.448-6.995 2.936-7.78 7.05a16.141 16.141 0 0 0 .083 6.518c.713 3.25 2.651 5.346 5.815 6.287 2.043.577 4.189.683 6.278.31a19.465 19.465 0 0 0 3.06-.928l.356-.126-.164-.56z"/></g><g><path fill="#fff" d="M309.926 239.352v.217h-12.104c-.064 2.206 1.255 3.141 2.977 3.43 1.047.098 2.1.098 3.148 0 1.092-.15 2.173-.38 3.234-.686l.128-.04c.242-.08.478-.151.713-.216l.314-.105.028.105c.285 1.069.588 2.13.838 3.214l.218.809c-5.43 2.759-11.58 1.112-12.835.75h-.036c-2.752-1.014-4.346-3.12-4.785-6.43-.29-2.232-.255-4.494.104-6.714.61-3.611 3.462-6.013 7.28-6.381a16.193 16.193 0 0 1 4.203.068c3.584.61 5.801 2.944 6.329 6.627.147 1.357.214 2.723.2 4.088zm-5.598-3.958c.04-1.42-.064-2.737-1.362-3.463a3.643 3.643 0 0 0-3.921.112c-1.18.758-1.344 2.008-1.38 3.351z"/></g><g><path fill="#fff" d="M394.003 227.68h-6.542l-5.683 9v-19.66l-6.168.758v29.457h6.168v-9.014l5.683 9.029h6.542l-6.168-9.801z"/></g><g><path fill="#fff" d="M373.304 234.12c.49 2.173.49 4.43 0 6.602-.905 4.005-4.007 6.62-8.096 6.833h-.147a12.32 12.32 0 0 1-2.584-.044 7.215 7.215 0 0 1-.664-.083h-.153a6.854 6.854 0 0 1-.46-.083h-.025l-.17-.036c-3.958-.924-6.511-3.9-6.74-8.078a21.21 21.21 0 0 1 .357-5.504c.692-3.264 2.831-5.316 6.04-6.182 2.112-.58 4.338-.58 6.45 0 3.394.92 5.461 3.142 6.192 6.576zm-5.993.55a3.357 3.357 0 0 0-1.187-1.923 3.28 3.28 0 0 0-2.125-.717c-2.05-.04-3.416 1.17-3.597 3.384a23.973 23.973 0 0 0 .028 4.225c.168 1.917 1.483 3.04 3.376 3.13 1.762.08 3.084-.917 3.494-2.758.029-.13.05-.257.072-.387.039-.375.331-3.311-.061-4.954z"/></g></g></g></g><g><g><g><path fill="#18222e" d="M297 95h238v69.95H297z"/></g></g><g><g><path fill="#fff" d="M447.47 138.84l9.125-24.2h3.515l9.126 24.2h-3.448l-2.332-6.558h-10.173l-2.366 6.557zm6.86-9.464h8.045l-3.955-10.917h-.135zm23.626 10.004c-2.141 0-3.989-.845-5.543-2.535-1.555-1.69-2.332-3.785-2.332-6.286 0-2.501.777-4.597 2.332-6.287 1.554-1.69 3.402-2.534 5.543-2.534 1.262 0 2.395.27 3.397.81 1.002.541 1.752 1.217 2.247 2.029h.135l-.135-2.299v-7.638h3.11v24.2h-2.975v-2.299h-.135c-.495.811-1.245 1.487-2.249 2.028-1.003.54-2.133.811-3.395.811zm.507-2.839c1.465 0 2.71-.54 3.735-1.622 1.026-1.082 1.537-2.535 1.537-4.36 0-1.825-.513-3.279-1.537-4.36-1.024-1.082-2.27-1.622-3.735-1.622-1.442 0-2.682.546-3.718 1.638-1.036 1.092-1.555 2.542-1.555 4.344 0 1.801.519 3.25 1.555 4.342 1.036 1.092 2.276 1.64 3.718 1.64zm18.014 2.839c-1.847 0-3.374-.451-4.58-1.352-1.204-.9-2.09-2.028-2.653-3.38l2.772-1.149c.878 2.072 2.377 3.11 4.495 3.11.97 0 1.763-.215 2.382-.643.618-.427.93-.992.93-1.69 0-1.081-.755-1.813-2.265-2.196l-3.346-.812c-1.058-.27-2.061-.783-3.008-1.538-.946-.755-1.42-1.774-1.42-3.058 0-1.465.647-2.654 1.945-3.566 1.298-.913 2.833-1.368 4.613-1.368 1.465 0 2.771.332 3.92.996a5.614 5.614 0 0 1 2.467 2.857l-2.703 1.115c-.609-1.465-1.871-2.197-3.786-2.197-.924 0-1.701.191-2.332.574-.63.384-.946.901-.946 1.555 0 .946.732 1.589 2.197 1.927l3.278.777c1.555.36 2.704.98 3.447 1.859.744.879 1.116 1.87 1.116 2.974 0 1.487-.609 2.726-1.825 3.718-1.217.992-2.783 1.487-4.698 1.487z"/></g><g><g><path fill="#fff" d="M342.96 139.332c-7.494 0-13.96-6.172-13.96-13.666 0-7.494 6.319-13.666 13.96-13.666 4.114 0 7.2 1.616 9.405 3.82l-2.646 2.646c-1.616-1.47-3.82-2.645-6.759-2.645-5.437 0-9.845 4.408-9.845 9.992 0 5.584 4.261 9.992 9.845 9.992 3.527 0 5.584-1.47 6.907-2.792 1.028-1.028 1.763-2.645 2.057-4.702h-8.964v-3.674h12.637c.147.735.147 1.47.147 2.352 0 2.792-.734 6.318-3.233 8.816-2.498 2.205-5.584 3.527-9.551 3.527zm32.181-8.817c0 5.144-3.967 8.817-8.67 8.817-4.849 0-8.67-3.673-8.67-8.817 0-5.143 3.968-8.816 8.67-8.816 4.85 0 8.67 3.82 8.67 8.816zm-3.82 0c0-3.232-2.205-5.29-4.85-5.29-2.645 0-4.849 2.204-4.849 5.29s2.204 5.29 4.85 5.29c2.645.147 4.849-2.057 4.849-5.29zm23.364 0c0 5.144-3.967 8.817-8.67 8.817-4.849 0-8.67-3.673-8.67-8.817 0-5.143 3.968-8.816 8.67-8.816 4.703 0 8.67 3.82 8.67 8.816zm-3.82 0c0-3.232-2.205-5.29-4.85-5.29-2.645 0-4.849 2.204-4.849 5.29s2.204 5.29 4.85 5.29c2.497.147 4.849-2.057 4.849-5.29zm22.776-8.229v15.87c0 6.466-3.82 9.258-8.376 9.258-4.261 0-6.906-2.939-7.788-5.143l3.38-1.47c.588 1.47 2.057 3.086 4.408 3.086 2.94 0 4.703-1.763 4.703-5.143v-1.322h-.147c-.882 1.028-2.498 2.057-4.703 2.057-4.408 0-8.376-3.82-8.376-8.817 0-4.996 4.115-8.817 8.376-8.817 2.058 0 3.821.882 4.703 1.91h.147v-1.469zm-3.38 8.376c0-3.086-2.057-5.437-4.702-5.437s-4.849 2.204-4.849 5.437c0 3.086 2.204 5.29 4.85 5.29 2.644 0 4.702-2.35 4.702-5.29zm10.14-17.78v25.862h-3.82v-25.862zm18.221 22.63c-1.028 1.469-3.232 3.967-7.347 3.967-4.996 0-8.67-3.82-8.67-8.817 0-5.29 3.674-8.817 8.229-8.817 4.556 0 6.76 3.674 7.494 5.584l.441 1.03-11.755 4.848c.881 1.764 2.351 2.645 4.261 2.645 1.91 0 3.38-1.028 4.408-2.498zm-4.261-8.523c-.441-1.029-1.763-1.91-3.233-1.91-2.057 0-4.85 1.763-4.702 5.142z"/></g></g></g></g></g></g></svg>