<svg xmlns="http://www.w3.org/2000/svg" width="38" height="38" viewBox="0 0 38 38"><defs><linearGradient id="guqoa" x1="0" x2="39.47" y1="0" y2="38" gradientUnits="userSpaceOnUse"><stop offset="0" stop-color="#00b2ff"/><stop offset="1" stop-color="#00f0ff"/></linearGradient><linearGradient id="guqob" x1="17.81" x2="27.68" y1="10.69" y2="27.32" gradientUnits="userSpaceOnUse"><stop offset="0" stop-color="#00b2ff"/><stop offset="1" stop-color="#00f0ff"/></linearGradient><linearGradient id="guqoc" x1="10.69" x2="25.49" y1="17.81" y2="20.19" gradientUnits="userSpaceOnUse"><stop offset="0" stop-color="#00b2ff"/><stop offset="1" stop-color="#00f0ff"/></linearGradient></defs><g><g transform="rotate(180 19 19)"><g><g/><g><g><path fill="url(#guqoa)" d="M33.25 2.375a2.375 2.375 0 0 1 2.375 2.375v28.5a2.375 2.375 0 0 1-2.375 2.375H4.75a2.375 2.375 0 0 1-2.375-2.375V4.75A2.375 2.375 0 0 1 4.75 2.375zM4.75 0A4.75 4.75 0 0 0 0 4.75v28.5A4.75 4.75 0 0 0 4.75 38h28.5A4.75 4.75 0 0 0 38 33.25V4.75A4.75 4.75 0 0 0 33.25 0z"/></g><g><path fill="url(#guqob)" d="M18.159 26.97a1.188 1.188 0 0 1 0-1.682l6.287-6.284-6.287-6.284a1.189 1.189 0 1 1 1.681-1.682l7.125 7.125a1.187 1.187 0 0 1 0 1.682L19.84 26.97a1.188 1.188 0 0 1-1.681 0z"/></g><g><path fill="url(#guqoc)" d="M10.69 18.997a1.187 1.187 0 0 1 1.188-1.187h11.875a1.188 1.188 0 0 1 0 2.375H11.878a1.188 1.188 0 0 1-1.188-1.188z"/></g></g></g></g></g></svg>