<svg width="27" height="16" fill="none" xmlns="http://www.w3.org/2000/svg"><path d="M4.05 2.667h18.9c.358 0 .701-.14.955-.39a1.325 1.325 0 000-1.886A1.359 1.359 0 0022.95 0H4.05c-.358 0-.701.14-.955.39a1.325 1.325 0 000 1.886c.254.25.597.39.955.39zm21.6 4H1.35c-.358 0-.701.14-.955.39a1.325 1.325 0 000 1.886c.254.25.597.39.955.39h24.3c.358 0 .701-.14.955-.39a1.325 1.325 0 000-1.886 1.359 1.359 0 00-.955-.39zm-2.7 6.666H4.05c-.358 0-.701.14-.955.39a1.325 1.325 0 000 1.886c.254.25.597.391.955.391h18.9c.358 0 .701-.14.955-.39a1.325 1.325 0 000-1.886 1.359 1.359 0 00-.955-.39z" fill="#fff"/></svg>