<svg width="30" height="30" fill="none" xmlns="http://www.w3.org/2000/svg"><path fill-rule="evenodd" clip-rule="evenodd" d="M15 0l15 7.5v15L15 30 0 22.5v-15L15 0zM5.625 9.375L15 14.057v9.568l-9.375-4.683V9.375zm12 10.913V12.81L12 10.3v.069l-1.875-1.087V7.125l9.375 4.682v9.568l-1.875-1.087zm-7.5-11.074v.068L12 10.3V8.211v2.09l-1.875-1.087zm12.375 9.2v-7.479l-5.625-2.51v.069L15 7.407V5.25l9.375 4.683V19.5L22.5 18.413zM15 7.338l1.875 1.087V6.32v2.105L15 7.339zm0-4.544L2.5 9.045v11.91l12.5 6.25 12.5-6.25V9.045L15 2.795z" fill="url(#paint0_linear)"/><defs><linearGradient id="paint0_linear" x1="0" y1="0" x2="33.313" y2="2.618" gradientUnits="userSpaceOnUse"><stop stop-color="#00B2FF"/><stop offset="1" stop-color="#00F0FF"/></linearGradient></defs></svg>