<svg width="33" height="22" fill="none" xmlns="http://www.w3.org/2000/svg"><path d="M31.54.974c-.8 0-1.461.66-1.461 1.46v2.121C26.81 1.635 22.603 0 18.256 0 8.172 0 0 8.554 0 19.056c0 .8.66 1.46 1.46 1.46.8 0 1.461-.66 1.461-1.46-.035-8.902 6.85-16.135 15.3-16.135 3.686 0 7.129 1.356 9.876 3.79h-2.33c-.8 0-1.46.661-1.46 1.46 0 .8.66 1.461 1.46 1.461h5.773c.8 0 1.46-.66 1.46-1.46V2.434c0-.8-.66-1.46-1.46-1.46z" fill="url(#paint0_linear)"/><path d="M22.394 12.658h-8.31c-.626 0-1.148.521-1.148 1.147v6.19c0 .626.522 1.147 1.148 1.147h8.31c.626 0 1.148-.521 1.148-1.147v-6.19c0-.626-.522-1.147-1.148-1.147z" fill="url(#paint1_linear)"/><defs><linearGradient id="paint0_linear" x1="0" y1="0" x2="36.29" y2="4.588" gradientUnits="userSpaceOnUse"><stop stop-color="#00B2FF"/><stop offset="1" stop-color="#00F0FF"/></linearGradient><linearGradient id="paint1_linear" x1="12.936" y1="12.658" x2="24.673" y2="13.81" gradientUnits="userSpaceOnUse"><stop stop-color="#00B2FF"/><stop offset="1" stop-color="#00F0FF"/></linearGradient></defs></svg>