<svg width="35" height="36" fill="none" xmlns="http://www.w3.org/2000/svg"><path d="M17.5 2.483a.627.627 0 01-.625-.62V.62a.627.627 0 011.25 0v1.241a.627.627 0 01-.625.62z" fill="url(#paint0_linear)"/><path d="M9.688 4.561a.628.628 0 01-.542-.31L8.52 3.176a.617.617 0 01.23-.844.629.629 0 01.852.223l.625 1.075a.617.617 0 01-.228.848.628.628 0 01-.312.083z" fill="url(#paint1_linear)"/><path d="M3.968 10.241a.624.624 0 01-.312-.083l-1.083-.62a.621.621 0 01-.226-.846.624.624 0 01.85-.23l1.084.621a.622.622 0 01.29.698.62.62 0 01-.603.46z" fill="url(#paint2_linear)"/><path d="M1.875 18H.625a.627.627 0 01-.442-.182.619.619 0 01.442-1.06h1.25c.166 0 .325.066.442.182A.619.619 0 011.875 18z" fill="url(#paint3_linear)"/><path d="M34.375 18h-1.25a.627.627 0 01-.625-.62.627.627 0 01.625-.62h1.25a.627.627 0 01.625.62.627.627 0 01-.625.62z" fill="url(#paint4_linear)"/><path d="M31.032 10.241a.627.627 0 01-.604-.46.617.617 0 01.291-.698l1.083-.62a.629.629 0 01.85.229.617.617 0 01-.225.845l-1.083.621a.623.623 0 01-.312.083z" fill="url(#paint5_linear)"/><path d="M25.312 4.561a.628.628 0 01-.54-.31.618.618 0 010-.62l.625-1.076a.625.625 0 01.851-.223.622.622 0 01.231.844l-.625 1.075a.623.623 0 01-.542.31z" fill="url(#paint6_linear)"/><path d="M29.994 16.957a12.435 12.435 0 00-3.582-8.252 12.601 12.601 0 00-8.237-3.72 12.56 12.56 0 00-8.19 2.471 12.407 12.407 0 00-4.668 7.126A12.337 12.337 0 006.36 23.02a12.466 12.466 0 006.265 5.792c.335.143.62.38.82.682.2.303.306.657.305 1.02v.52h7.5v-.52a1.832 1.832 0 01.305-1.02c.2-.302.485-.54.82-.682a12.41 12.41 0 005.675-4.745 12.282 12.282 0 001.944-7.11zm-10.802 4.585a.627.627 0 01-.884 0l-4.558-4.527-4.558 4.527a.627.627 0 01-1.06-.44.618.618 0 01.176-.437l5-4.966a.627.627 0 01.884 0l4.558 4.527 5.366-5.33H22.5a.627.627 0 01-.625-.62c0-.165.066-.323.183-.44a.627.627 0 01.442-.18h3.125a.619.619 0 01.625.62v3.103a.619.619 0 01-.625.621.627.627 0 01-.625-.62v-1.606l-5.808 5.768z" fill="url(#paint7_linear)"/><path d="M13.75 35.38a.627.627 0 00.625.62h6.25a.627.627 0 00.625-.62v-.621h-7.5v.62z" fill="url(#paint8_linear)"/><path d="M13.75 32.276h7.5v1.241h-7.5v-1.241z" fill="url(#paint9_linear)"/><defs><linearGradient id="paint0_linear" x1="16.875" y1="0" x2="18.269" y2=".055" gradientUnits="userSpaceOnUse"><stop stop-color="#00B2FF"/><stop offset="1" stop-color="#00F0FF"/></linearGradient><linearGradient id="paint1_linear" x1="8.439" y1="2.249" x2="10.523" y2="2.381" gradientUnits="userSpaceOnUse"><stop stop-color="#00B2FF"/><stop offset="1" stop-color="#00F0FF"/></linearGradient><linearGradient id="paint2_linear" x1="2.264" y1="8.381" x2="4.841" y2="8.635" gradientUnits="userSpaceOnUse"><stop stop-color="#00B2FF"/><stop offset="1" stop-color="#00F0FF"/></linearGradient><linearGradient id="paint3_linear" x1="0" y1="16.759" x2="2.725" y2="17.19" gradientUnits="userSpaceOnUse"><stop stop-color="#00B2FF"/><stop offset="1" stop-color="#00F0FF"/></linearGradient><linearGradient id="paint4_linear" x1="32.5" y1="16.759" x2="35.225" y2="17.19" gradientUnits="userSpaceOnUse"><stop stop-color="#00B2FF"/><stop offset="1" stop-color="#00F0FF"/></linearGradient><linearGradient id="paint5_linear" x1="30.407" y1="8.381" x2="32.984" y2="8.635" gradientUnits="userSpaceOnUse"><stop stop-color="#00B2FF"/><stop offset="1" stop-color="#00F0FF"/></linearGradient><linearGradient id="paint6_linear" x1="24.688" y1="2.249" x2="26.772" y2="2.381" gradientUnits="userSpaceOnUse"><stop stop-color="#00B2FF"/><stop offset="1" stop-color="#00F0FF"/></linearGradient><linearGradient id="paint7_linear" x1="4.995" y1="4.966" x2="32.778" y2="7.06" gradientUnits="userSpaceOnUse"><stop stop-color="#00B2FF"/><stop offset="1" stop-color="#00F0FF"/></linearGradient><linearGradient id="paint8_linear" x1="13.75" y1="34.759" x2="20.588" y2="38.005" gradientUnits="userSpaceOnUse"><stop stop-color="#00B2FF"/><stop offset="1" stop-color="#00F0FF"/></linearGradient><linearGradient id="paint9_linear" x1="13.75" y1="32.276" x2="20.588" y2="35.523" gradientUnits="userSpaceOnUse"><stop stop-color="#00B2FF"/><stop offset="1" stop-color="#00F0FF"/></linearGradient></defs></svg>