<svg width="21" height="32" fill="none" xmlns="http://www.w3.org/2000/svg"><path d="M7.965 0C4.375 0 1.45 2.926 1.45 6.516a6.516 6.516 0 002.896 5.42v-1.879a5.024 5.024 0 01-1.448-3.54 5.057 5.057 0 015.068-5.069 5.057 5.057 0 015.069 5.068c0 1.385-.552 2.63-1.449 3.541v1.878a6.516 6.516 0 002.897-5.419C14.482 2.926 11.556 0 7.965 0zm0 5.068A2.167 2.167 0 005.793 7.24v13.033l-1.448-2.896c-1.186-2.202-2.353-1.973-3.258-1.448-1.048.698-1.438 1.42-.724 3.258 1.643 4.035 4.167 8.844 6.878 11.946h9.775c3.435-2.545 6.199-14.648 1.448-15.204-.436 0-1.134.07-1.448.362 0-1.448-1.264-1.82-1.81-1.81-.627.01-1.087.362-1.448 1.086 0-1.449-1.181-1.81-1.81-1.81-.693 0-1.496.432-1.81 1.086V7.24a2.167 2.167 0 00-2.173-2.172z" fill="url(#paint0_linear)"/><defs><linearGradient id="paint0_linear" x1="0" y1="0" x2="23.397" y2="1.24" gradientUnits="userSpaceOnUse"><stop stop-color="#00B2FF"/><stop offset="1" stop-color="#00F0FF"/></linearGradient></defs></svg>