<svg width="30" height="25" fill="none" xmlns="http://www.w3.org/2000/svg"><path d="M18.334 13.953V6.467H14.7v9.798c1.434-.495 2.7-1.294 3.634-2.312z" fill="url(#paint0_linear)"/><path d="M9.7 16.595c.6.11 1.2.165 1.834.165.633 0 1.233-.055 1.833-.165v-5.23H9.7v5.23z" fill="url(#paint1_linear)"/><path d="M8.366 16.265v-6.55H4.733v4.238c.933 1.018 2.2 1.816 3.633 2.312z" fill="url(#paint2_linear)"/><path d="M29.933 22.788l-9.066-7.486c1.366-1.57 2.2-3.496 2.2-5.587 0-5.257-5.167-9.55-11.567-9.55S0 4.457 0 9.714c0 5.256 5.167 9.55 11.567 9.55 2.533 0 4.866-.688 6.766-1.817l9.067 7.486 2.533-2.146zM2.4 9.715c0-4.156 4.1-7.541 9.133-7.541 5.034 0 9.134 3.385 9.134 7.54 0 4.156-4.1 7.542-9.134 7.542C6.5 17.256 2.4 13.87 2.4 9.715z" fill="url(#paint3_linear)"/><defs><linearGradient id="paint0_linear" x1="14.7" y1="6.467" x2="18.756" y2="6.585" gradientUnits="userSpaceOnUse"><stop stop-color="#1EC3FF"/><stop offset="1" stop-color="#00F0FF"/></linearGradient><linearGradient id="paint1_linear" x1="9.7" y1="11.366" x2="13.785" y2="11.584" gradientUnits="userSpaceOnUse"><stop stop-color="#1EC3FF"/><stop offset="1" stop-color="#00F0FF"/></linearGradient><linearGradient id="paint2_linear" x1="4.733" y1="9.715" x2="8.785" y2="9.891" gradientUnits="userSpaceOnUse"><stop stop-color="#1EC3FF"/><stop offset="1" stop-color="#00F0FF"/></linearGradient><linearGradient id="paint3_linear" x1="0" y1=".164" x2="33.145" y2="3.312" gradientUnits="userSpaceOnUse"><stop stop-color="#1EC3FF"/><stop offset="1" stop-color="#00F0FF"/></linearGradient></defs></svg>